<mxfile host="Electron" modified="2023-08-17T13:44:28.861Z" agent="Mozilla/5.0 (Windows NT 10.0; Win64; x64) AppleWebKit/537.36 (KHTML, like Gecko) draw.io/21.6.1 Chrome/112.0.5615.204 Electron/24.6.1 Safari/537.36" etag="08LKuYHBib8jM7wI4Kua" version="21.6.1" type="device" pages="6">
  <diagram id="Uml1k_bIXuG0kOrMOLFi" name="UsecaseDiagram">
    <mxGraphModel dx="1434" dy="836" grid="1" gridSize="10" guides="1" tooltips="1" connect="1" arrows="1" fold="1" page="1" pageScale="1" pageWidth="850" pageHeight="1100" math="0" shadow="0">
      <root>
        <mxCell id="0" />
        <mxCell id="1" parent="0" />
        <mxCell id="P8i2OJOOGue6GX6Fp_Au-12" style="rounded=0;orthogonalLoop=1;jettySize=auto;html=1;endArrow=none;endFill=0;" parent="1" source="P8i2OJOOGue6GX6Fp_Au-4" target="P8i2OJOOGue6GX6Fp_Au-9" edge="1">
          <mxGeometry relative="1" as="geometry" />
        </mxCell>
        <mxCell id="P8i2OJOOGue6GX6Fp_Au-13" style="edgeStyle=none;rounded=0;orthogonalLoop=1;jettySize=auto;html=1;endArrow=none;endFill=0;" parent="1" source="P8i2OJOOGue6GX6Fp_Au-4" target="P8i2OJOOGue6GX6Fp_Au-10" edge="1">
          <mxGeometry relative="1" as="geometry" />
        </mxCell>
        <mxCell id="P8i2OJOOGue6GX6Fp_Au-14" style="edgeStyle=none;rounded=0;orthogonalLoop=1;jettySize=auto;html=1;endArrow=none;endFill=0;" parent="1" source="P8i2OJOOGue6GX6Fp_Au-4" target="P8i2OJOOGue6GX6Fp_Au-11" edge="1">
          <mxGeometry relative="1" as="geometry" />
        </mxCell>
        <mxCell id="P8i2OJOOGue6GX6Fp_Au-19" style="edgeStyle=none;rounded=0;orthogonalLoop=1;jettySize=auto;html=1;endArrow=none;endFill=0;" parent="1" source="P8i2OJOOGue6GX6Fp_Au-4" target="P8i2OJOOGue6GX6Fp_Au-18" edge="1">
          <mxGeometry relative="1" as="geometry" />
        </mxCell>
        <mxCell id="P8i2OJOOGue6GX6Fp_Au-34" style="edgeStyle=none;rounded=0;orthogonalLoop=1;jettySize=auto;html=1;endArrow=none;endFill=0;" parent="1" source="P8i2OJOOGue6GX6Fp_Au-4" target="P8i2OJOOGue6GX6Fp_Au-33" edge="1">
          <mxGeometry relative="1" as="geometry" />
        </mxCell>
        <mxCell id="P8i2OJOOGue6GX6Fp_Au-4" value="Witness" style="shape=umlActor;verticalLabelPosition=bottom;verticalAlign=top;html=1;outlineConnect=0;" parent="1" vertex="1">
          <mxGeometry x="40" y="520" width="30" height="60" as="geometry" />
        </mxCell>
        <mxCell id="P8i2OJOOGue6GX6Fp_Au-15" style="edgeStyle=none;rounded=0;orthogonalLoop=1;jettySize=auto;html=1;endArrow=none;endFill=0;" parent="1" source="P8i2OJOOGue6GX6Fp_Au-5" target="P8i2OJOOGue6GX6Fp_Au-9" edge="1">
          <mxGeometry relative="1" as="geometry" />
        </mxCell>
        <mxCell id="P8i2OJOOGue6GX6Fp_Au-16" style="edgeStyle=none;rounded=0;orthogonalLoop=1;jettySize=auto;html=1;endArrow=none;endFill=0;" parent="1" source="P8i2OJOOGue6GX6Fp_Au-5" target="P8i2OJOOGue6GX6Fp_Au-10" edge="1">
          <mxGeometry relative="1" as="geometry" />
        </mxCell>
        <mxCell id="P8i2OJOOGue6GX6Fp_Au-17" style="edgeStyle=none;rounded=0;orthogonalLoop=1;jettySize=auto;html=1;endArrow=none;endFill=0;" parent="1" source="P8i2OJOOGue6GX6Fp_Au-5" target="P8i2OJOOGue6GX6Fp_Au-11" edge="1">
          <mxGeometry relative="1" as="geometry" />
        </mxCell>
        <mxCell id="P8i2OJOOGue6GX6Fp_Au-25" style="edgeStyle=none;rounded=0;orthogonalLoop=1;jettySize=auto;html=1;endArrow=none;endFill=0;" parent="1" source="P8i2OJOOGue6GX6Fp_Au-5" target="P8i2OJOOGue6GX6Fp_Au-24" edge="1">
          <mxGeometry relative="1" as="geometry" />
        </mxCell>
        <mxCell id="P8i2OJOOGue6GX6Fp_Au-5" value="Police" style="shape=umlActor;verticalLabelPosition=bottom;verticalAlign=top;html=1;outlineConnect=0;" parent="1" vertex="1">
          <mxGeometry x="770" y="520" width="30" height="60" as="geometry" />
        </mxCell>
        <mxCell id="P8i2OJOOGue6GX6Fp_Au-8" value="" style="swimlane;startSize=0;" parent="1" vertex="1">
          <mxGeometry x="120" y="80" width="600" height="920" as="geometry" />
        </mxCell>
        <mxCell id="P8i2OJOOGue6GX6Fp_Au-9" value="Register" style="ellipse;whiteSpace=wrap;html=1;" parent="P8i2OJOOGue6GX6Fp_Au-8" vertex="1">
          <mxGeometry x="260" y="370" width="120" height="40" as="geometry" />
        </mxCell>
        <mxCell id="P8i2OJOOGue6GX6Fp_Au-10" value="Login" style="ellipse;whiteSpace=wrap;html=1;" parent="P8i2OJOOGue6GX6Fp_Au-8" vertex="1">
          <mxGeometry x="260" y="450" width="120" height="40" as="geometry" />
        </mxCell>
        <mxCell id="P8i2OJOOGue6GX6Fp_Au-11" value="Manage account" style="ellipse;whiteSpace=wrap;html=1;" parent="P8i2OJOOGue6GX6Fp_Au-8" vertex="1">
          <mxGeometry x="260" y="530" width="120" height="40" as="geometry" />
        </mxCell>
        <mxCell id="P8i2OJOOGue6GX6Fp_Au-22" style="edgeStyle=none;rounded=0;orthogonalLoop=1;jettySize=auto;html=1;endArrow=none;endFill=0;dashed=1;" parent="P8i2OJOOGue6GX6Fp_Au-8" source="P8i2OJOOGue6GX6Fp_Au-18" target="P8i2OJOOGue6GX6Fp_Au-21" edge="1">
          <mxGeometry relative="1" as="geometry" />
        </mxCell>
        <mxCell id="P8i2OJOOGue6GX6Fp_Au-23" value="&amp;lt;&amp;lt;include&amp;gt;&amp;gt;" style="edgeLabel;html=1;align=center;verticalAlign=middle;resizable=0;points=[];" parent="P8i2OJOOGue6GX6Fp_Au-22" vertex="1" connectable="0">
          <mxGeometry x="-0.3995" y="-1" relative="1" as="geometry">
            <mxPoint x="10" y="-16" as="offset" />
          </mxGeometry>
        </mxCell>
        <mxCell id="P8i2OJOOGue6GX6Fp_Au-18" value="Post a new report" style="ellipse;whiteSpace=wrap;html=1;" parent="P8i2OJOOGue6GX6Fp_Au-8" vertex="1">
          <mxGeometry x="40" y="200" width="120" height="40" as="geometry" />
        </mxCell>
        <mxCell id="P8i2OJOOGue6GX6Fp_Au-21" value="Add evidences" style="ellipse;whiteSpace=wrap;html=1;" parent="P8i2OJOOGue6GX6Fp_Au-8" vertex="1">
          <mxGeometry x="80" y="80" width="120" height="40" as="geometry" />
        </mxCell>
        <mxCell id="P8i2OJOOGue6GX6Fp_Au-27" style="edgeStyle=none;rounded=0;orthogonalLoop=1;jettySize=auto;html=1;endArrow=none;endFill=0;dashed=1;" parent="P8i2OJOOGue6GX6Fp_Au-8" source="P8i2OJOOGue6GX6Fp_Au-24" target="P8i2OJOOGue6GX6Fp_Au-26" edge="1">
          <mxGeometry relative="1" as="geometry" />
        </mxCell>
        <mxCell id="P8i2OJOOGue6GX6Fp_Au-28" value="&amp;lt;&amp;lt;Include&amp;gt;&amp;gt;" style="edgeLabel;html=1;align=center;verticalAlign=middle;resizable=0;points=[];" parent="P8i2OJOOGue6GX6Fp_Au-27" vertex="1" connectable="0">
          <mxGeometry x="-0.2859" y="-2" relative="1" as="geometry">
            <mxPoint x="-6" y="-11" as="offset" />
          </mxGeometry>
        </mxCell>
        <mxCell id="P8i2OJOOGue6GX6Fp_Au-24" value="Review reports" style="ellipse;whiteSpace=wrap;html=1;" parent="P8i2OJOOGue6GX6Fp_Au-8" vertex="1">
          <mxGeometry x="440" y="200" width="120" height="40" as="geometry" />
        </mxCell>
        <mxCell id="P8i2OJOOGue6GX6Fp_Au-43" style="edgeStyle=none;rounded=0;orthogonalLoop=1;jettySize=auto;html=1;dashed=1;endArrow=none;endFill=0;" parent="P8i2OJOOGue6GX6Fp_Au-8" source="P8i2OJOOGue6GX6Fp_Au-26" target="P8i2OJOOGue6GX6Fp_Au-41" edge="1">
          <mxGeometry relative="1" as="geometry" />
        </mxCell>
        <mxCell id="P8i2OJOOGue6GX6Fp_Au-44" value="&amp;lt;&amp;lt;include&amp;gt;&amp;gt;" style="edgeLabel;html=1;align=center;verticalAlign=middle;resizable=0;points=[];" parent="P8i2OJOOGue6GX6Fp_Au-43" vertex="1" connectable="0">
          <mxGeometry x="0.289" relative="1" as="geometry">
            <mxPoint y="-13" as="offset" />
          </mxGeometry>
        </mxCell>
        <mxCell id="P8i2OJOOGue6GX6Fp_Au-26" value="Review&amp;nbsp; evidences" style="ellipse;whiteSpace=wrap;html=1;" parent="P8i2OJOOGue6GX6Fp_Au-8" vertex="1">
          <mxGeometry x="400" y="80" width="120" height="40" as="geometry" />
        </mxCell>
        <mxCell id="P8i2OJOOGue6GX6Fp_Au-36" style="edgeStyle=none;rounded=0;orthogonalLoop=1;jettySize=auto;html=1;endArrow=none;endFill=0;dashed=1;" parent="P8i2OJOOGue6GX6Fp_Au-8" source="P8i2OJOOGue6GX6Fp_Au-33" target="P8i2OJOOGue6GX6Fp_Au-35" edge="1">
          <mxGeometry relative="1" as="geometry" />
        </mxCell>
        <mxCell id="P8i2OJOOGue6GX6Fp_Au-37" value="&amp;lt;&amp;lt;extend&amp;gt;&amp;gt;" style="edgeLabel;html=1;align=center;verticalAlign=middle;resizable=0;points=[];" parent="P8i2OJOOGue6GX6Fp_Au-36" vertex="1" connectable="0">
          <mxGeometry x="0.3605" y="-1" relative="1" as="geometry">
            <mxPoint x="-4" y="-15" as="offset" />
          </mxGeometry>
        </mxCell>
        <mxCell id="P8i2OJOOGue6GX6Fp_Au-39" style="edgeStyle=none;rounded=0;orthogonalLoop=1;jettySize=auto;html=1;dashed=1;endArrow=none;endFill=0;" parent="P8i2OJOOGue6GX6Fp_Au-8" source="P8i2OJOOGue6GX6Fp_Au-33" target="P8i2OJOOGue6GX6Fp_Au-38" edge="1">
          <mxGeometry relative="1" as="geometry" />
        </mxCell>
        <mxCell id="P8i2OJOOGue6GX6Fp_Au-40" value="&amp;lt;&amp;lt;extend&amp;gt;&amp;gt;" style="edgeLabel;html=1;align=center;verticalAlign=middle;resizable=0;points=[];" parent="P8i2OJOOGue6GX6Fp_Au-39" vertex="1" connectable="0">
          <mxGeometry x="0.4312" relative="1" as="geometry">
            <mxPoint x="-4" y="16" as="offset" />
          </mxGeometry>
        </mxCell>
        <mxCell id="P8i2OJOOGue6GX6Fp_Au-33" value="View reports" style="ellipse;whiteSpace=wrap;html=1;" parent="P8i2OJOOGue6GX6Fp_Au-8" vertex="1">
          <mxGeometry x="40" y="680" width="120" height="40" as="geometry" />
        </mxCell>
        <mxCell id="P8i2OJOOGue6GX6Fp_Au-35" value="Add evidences" style="ellipse;whiteSpace=wrap;html=1;" parent="P8i2OJOOGue6GX6Fp_Au-8" vertex="1">
          <mxGeometry x="80" y="800" width="120" height="40" as="geometry" />
        </mxCell>
        <mxCell id="P8i2OJOOGue6GX6Fp_Au-38" value="Star report" style="ellipse;whiteSpace=wrap;html=1;" parent="P8i2OJOOGue6GX6Fp_Au-8" vertex="1">
          <mxGeometry x="80" y="560" width="120" height="40" as="geometry" />
        </mxCell>
        <mxCell id="P8i2OJOOGue6GX6Fp_Au-41" value="Approve/ Decline report" style="ellipse;whiteSpace=wrap;html=1;" parent="P8i2OJOOGue6GX6Fp_Au-8" vertex="1">
          <mxGeometry x="305" y="200" width="120" height="40" as="geometry" />
        </mxCell>
      </root>
    </mxGraphModel>
  </diagram>
  <diagram id="HSm-c1T4bO3pPYmDaJCT" name="ERDiagram">
    <mxGraphModel dx="1434" dy="836" grid="1" gridSize="10" guides="1" tooltips="1" connect="1" arrows="1" fold="1" page="1" pageScale="1" pageWidth="850" pageHeight="1100" math="0" shadow="0">
      <root>
        <mxCell id="0" />
        <mxCell id="1" parent="0" />
        <mxCell id="WMssrNlKbdUTPQ8c-u5r-30" style="edgeStyle=orthogonalEdgeStyle;shape=link;rounded=0;orthogonalLoop=1;jettySize=auto;html=1;endArrow=none;endFill=0;" parent="1" source="WMssrNlKbdUTPQ8c-u5r-1" target="WMssrNlKbdUTPQ8c-u5r-26" edge="1">
          <mxGeometry relative="1" as="geometry" />
        </mxCell>
        <mxCell id="WMssrNlKbdUTPQ8c-u5r-41" style="edgeStyle=orthogonalEdgeStyle;rounded=0;orthogonalLoop=1;jettySize=auto;html=1;endArrow=none;endFill=0;" parent="1" source="WMssrNlKbdUTPQ8c-u5r-1" target="WMssrNlKbdUTPQ8c-u5r-40" edge="1">
          <mxGeometry relative="1" as="geometry" />
        </mxCell>
        <mxCell id="nXLPthDUEr7rPw0SUE7N-16" value="" style="edgeStyle=none;rounded=0;orthogonalLoop=1;jettySize=auto;html=1;endArrow=none;endFill=0;" parent="1" source="WMssrNlKbdUTPQ8c-u5r-1" target="nXLPthDUEr7rPw0SUE7N-15" edge="1">
          <mxGeometry relative="1" as="geometry" />
        </mxCell>
        <mxCell id="WMssrNlKbdUTPQ8c-u5r-1" value="Police" style="rounded=1;arcSize=10;whiteSpace=wrap;html=1;align=center;" parent="1" vertex="1">
          <mxGeometry x="360" y="200" width="120" height="40" as="geometry" />
        </mxCell>
        <mxCell id="WMssrNlKbdUTPQ8c-u5r-11" style="edgeStyle=orthogonalEdgeStyle;rounded=0;orthogonalLoop=1;jettySize=auto;html=1;endArrow=none;endFill=0;" parent="1" source="WMssrNlKbdUTPQ8c-u5r-2" target="WMssrNlKbdUTPQ8c-u5r-6" edge="1">
          <mxGeometry relative="1" as="geometry">
            <Array as="points">
              <mxPoint x="100" y="370" />
              <mxPoint x="100" y="370" />
            </Array>
          </mxGeometry>
        </mxCell>
        <mxCell id="WMssrNlKbdUTPQ8c-u5r-12" style="edgeStyle=orthogonalEdgeStyle;rounded=0;orthogonalLoop=1;jettySize=auto;html=1;endArrow=none;endFill=0;" parent="1" source="WMssrNlKbdUTPQ8c-u5r-2" target="WMssrNlKbdUTPQ8c-u5r-9" edge="1">
          <mxGeometry relative="1" as="geometry" />
        </mxCell>
        <mxCell id="WMssrNlKbdUTPQ8c-u5r-13" style="edgeStyle=orthogonalEdgeStyle;rounded=0;orthogonalLoop=1;jettySize=auto;html=1;endArrow=none;endFill=0;" parent="1" source="WMssrNlKbdUTPQ8c-u5r-2" target="WMssrNlKbdUTPQ8c-u5r-10" edge="1">
          <mxGeometry relative="1" as="geometry">
            <Array as="points">
              <mxPoint x="200" y="390" />
              <mxPoint x="200" y="390" />
            </Array>
          </mxGeometry>
        </mxCell>
        <mxCell id="nXLPthDUEr7rPw0SUE7N-27" style="rounded=0;orthogonalLoop=1;jettySize=auto;html=1;endArrow=none;endFill=0;" parent="1" source="WMssrNlKbdUTPQ8c-u5r-2" target="nXLPthDUEr7rPw0SUE7N-26" edge="1">
          <mxGeometry relative="1" as="geometry" />
        </mxCell>
        <mxCell id="cu2pedUz53kybV1dXMUo-8" style="edgeStyle=orthogonalEdgeStyle;rounded=0;orthogonalLoop=1;jettySize=auto;html=1;endArrow=none;endFill=0;" parent="1" source="WMssrNlKbdUTPQ8c-u5r-2" target="WMssrNlKbdUTPQ8c-u5r-35" edge="1">
          <mxGeometry relative="1" as="geometry" />
        </mxCell>
        <mxCell id="WMssrNlKbdUTPQ8c-u5r-2" value="Witness" style="rounded=1;arcSize=10;whiteSpace=wrap;html=1;align=center;" parent="1" vertex="1">
          <mxGeometry x="90" y="320" width="120" height="40" as="geometry" />
        </mxCell>
        <mxCell id="WMssrNlKbdUTPQ8c-u5r-18" style="edgeStyle=orthogonalEdgeStyle;shape=link;rounded=0;orthogonalLoop=1;jettySize=auto;html=1;endArrow=none;endFill=0;" parent="1" source="WMssrNlKbdUTPQ8c-u5r-3" target="WMssrNlKbdUTPQ8c-u5r-17" edge="1">
          <mxGeometry relative="1" as="geometry" />
        </mxCell>
        <mxCell id="nXLPthDUEr7rPw0SUE7N-23" style="edgeStyle=none;rounded=0;orthogonalLoop=1;jettySize=auto;html=1;endArrow=none;endFill=0;" parent="1" source="WMssrNlKbdUTPQ8c-u5r-3" target="nXLPthDUEr7rPw0SUE7N-22" edge="1">
          <mxGeometry relative="1" as="geometry" />
        </mxCell>
        <mxCell id="nXLPthDUEr7rPw0SUE7N-42" style="edgeStyle=none;rounded=0;orthogonalLoop=1;jettySize=auto;html=1;endArrow=none;endFill=0;" parent="1" source="WMssrNlKbdUTPQ8c-u5r-3" target="nXLPthDUEr7rPw0SUE7N-41" edge="1">
          <mxGeometry relative="1" as="geometry" />
        </mxCell>
        <mxCell id="nXLPthDUEr7rPw0SUE7N-46" style="edgeStyle=none;rounded=0;orthogonalLoop=1;jettySize=auto;html=1;endArrow=none;endFill=0;" parent="1" source="WMssrNlKbdUTPQ8c-u5r-3" target="nXLPthDUEr7rPw0SUE7N-45" edge="1">
          <mxGeometry relative="1" as="geometry" />
        </mxCell>
        <mxCell id="WMssrNlKbdUTPQ8c-u5r-3" value="Report" style="rounded=1;arcSize=10;whiteSpace=wrap;html=1;align=center;" parent="1" vertex="1">
          <mxGeometry x="90" y="640" width="120" height="40" as="geometry" />
        </mxCell>
        <mxCell id="WMssrNlKbdUTPQ8c-u5r-23" style="edgeStyle=orthogonalEdgeStyle;rounded=0;orthogonalLoop=1;jettySize=auto;html=1;endArrow=none;endFill=0;" parent="1" source="WMssrNlKbdUTPQ8c-u5r-4" target="WMssrNlKbdUTPQ8c-u5r-21" edge="1">
          <mxGeometry relative="1" as="geometry" />
        </mxCell>
        <mxCell id="nXLPthDUEr7rPw0SUE7N-50" style="edgeStyle=none;rounded=0;orthogonalLoop=1;jettySize=auto;html=1;endArrow=none;endFill=0;" parent="1" source="WMssrNlKbdUTPQ8c-u5r-4" target="nXLPthDUEr7rPw0SUE7N-49" edge="1">
          <mxGeometry relative="1" as="geometry" />
        </mxCell>
        <mxCell id="zEJbkuY8wD9b35PMSP6j-2" style="rounded=0;orthogonalLoop=1;jettySize=auto;html=1;endArrow=none;endFill=0;" parent="1" source="WMssrNlKbdUTPQ8c-u5r-4" target="zEJbkuY8wD9b35PMSP6j-1" edge="1">
          <mxGeometry relative="1" as="geometry" />
        </mxCell>
        <mxCell id="WMssrNlKbdUTPQ8c-u5r-4" value="Evidence" style="rounded=1;arcSize=10;whiteSpace=wrap;html=1;align=center;" parent="1" vertex="1">
          <mxGeometry x="680" y="640" width="120" height="40" as="geometry" />
        </mxCell>
        <mxCell id="WMssrNlKbdUTPQ8c-u5r-14" style="edgeStyle=orthogonalEdgeStyle;rounded=0;orthogonalLoop=1;jettySize=auto;html=1;endArrow=none;endFill=0;" parent="1" source="WMssrNlKbdUTPQ8c-u5r-6" target="WMssrNlKbdUTPQ8c-u5r-3" edge="1">
          <mxGeometry relative="1" as="geometry">
            <Array as="points">
              <mxPoint x="100" y="600" />
              <mxPoint x="100" y="600" />
            </Array>
          </mxGeometry>
        </mxCell>
        <mxCell id="WMssrNlKbdUTPQ8c-u5r-6" value="Stars" style="rhombus;whiteSpace=wrap;html=1;rounded=1;arcSize=10;" parent="1" vertex="1">
          <mxGeometry x="60" y="410" width="80" height="80" as="geometry" />
        </mxCell>
        <mxCell id="WMssrNlKbdUTPQ8c-u5r-15" style="edgeStyle=orthogonalEdgeStyle;rounded=0;orthogonalLoop=1;jettySize=auto;html=1;endArrow=none;endFill=0;shape=link;" parent="1" source="WMssrNlKbdUTPQ8c-u5r-9" target="WMssrNlKbdUTPQ8c-u5r-3" edge="1">
          <mxGeometry relative="1" as="geometry" />
        </mxCell>
        <mxCell id="WMssrNlKbdUTPQ8c-u5r-9" value="Posts" style="rhombus;whiteSpace=wrap;html=1;rounded=1;arcSize=10;" parent="1" vertex="1">
          <mxGeometry x="110" y="460" width="80" height="80" as="geometry" />
        </mxCell>
        <mxCell id="WMssrNlKbdUTPQ8c-u5r-20" style="edgeStyle=orthogonalEdgeStyle;shape=link;rounded=0;orthogonalLoop=1;jettySize=auto;html=1;endArrow=none;endFill=0;" parent="1" source="WMssrNlKbdUTPQ8c-u5r-10" target="WMssrNlKbdUTPQ8c-u5r-4" edge="1">
          <mxGeometry relative="1" as="geometry">
            <Array as="points">
              <mxPoint x="720" y="550" />
            </Array>
          </mxGeometry>
        </mxCell>
        <mxCell id="WMssrNlKbdUTPQ8c-u5r-10" value="Adds" style="rhombus;whiteSpace=wrap;html=1;rounded=1;arcSize=10;" parent="1" vertex="1">
          <mxGeometry x="160" y="510" width="80" height="80" as="geometry" />
        </mxCell>
        <mxCell id="WMssrNlKbdUTPQ8c-u5r-19" style="edgeStyle=orthogonalEdgeStyle;shape=link;rounded=0;orthogonalLoop=1;jettySize=auto;html=1;endArrow=none;endFill=0;" parent="1" source="WMssrNlKbdUTPQ8c-u5r-17" target="WMssrNlKbdUTPQ8c-u5r-4" edge="1">
          <mxGeometry relative="1" as="geometry" />
        </mxCell>
        <mxCell id="WMssrNlKbdUTPQ8c-u5r-17" value="Has" style="rhombus;whiteSpace=wrap;html=1;rounded=1;arcSize=10;" parent="1" vertex="1">
          <mxGeometry x="380" y="620" width="80" height="80" as="geometry" />
        </mxCell>
        <mxCell id="WMssrNlKbdUTPQ8c-u5r-24" style="edgeStyle=orthogonalEdgeStyle;shape=link;rounded=0;orthogonalLoop=1;jettySize=auto;html=1;endArrow=none;endFill=0;" parent="1" source="WMssrNlKbdUTPQ8c-u5r-21" target="WMssrNlKbdUTPQ8c-u5r-22" edge="1">
          <mxGeometry relative="1" as="geometry">
            <Array as="points">
              <mxPoint x="760" y="795" />
            </Array>
          </mxGeometry>
        </mxCell>
        <mxCell id="NMGQNGQpsqlJH04NM1oV-2" style="edgeStyle=orthogonalEdgeStyle;rounded=0;orthogonalLoop=1;jettySize=auto;html=1;entryX=0.75;entryY=0;entryDx=0;entryDy=0;endArrow=none;endFill=0;" parent="1" source="WMssrNlKbdUTPQ8c-u5r-21" target="nXLPthDUEr7rPw0SUE7N-21" edge="1">
          <mxGeometry relative="1" as="geometry">
            <Array as="points">
              <mxPoint x="690" y="870" />
              <mxPoint x="210" y="870" />
            </Array>
          </mxGeometry>
        </mxCell>
        <mxCell id="WMssrNlKbdUTPQ8c-u5r-21" value="Has" style="rhombus;whiteSpace=wrap;html=1;rounded=1;arcSize=10;" parent="1" vertex="1">
          <mxGeometry x="650" y="755" width="80" height="80" as="geometry" />
        </mxCell>
        <mxCell id="nXLPthDUEr7rPw0SUE7N-54" value="" style="edgeStyle=none;rounded=0;orthogonalLoop=1;jettySize=auto;html=1;endArrow=none;endFill=0;" parent="1" source="WMssrNlKbdUTPQ8c-u5r-22" target="nXLPthDUEr7rPw0SUE7N-53" edge="1">
          <mxGeometry relative="1" as="geometry" />
        </mxCell>
        <mxCell id="nXLPthDUEr7rPw0SUE7N-56" style="edgeStyle=none;rounded=0;orthogonalLoop=1;jettySize=auto;html=1;endArrow=none;endFill=0;" parent="1" source="WMssrNlKbdUTPQ8c-u5r-22" target="nXLPthDUEr7rPw0SUE7N-55" edge="1">
          <mxGeometry relative="1" as="geometry" />
        </mxCell>
        <mxCell id="cu2pedUz53kybV1dXMUo-17" style="rounded=0;orthogonalLoop=1;jettySize=auto;html=1;endArrow=none;endFill=0;" parent="1" source="WMssrNlKbdUTPQ8c-u5r-22" target="cu2pedUz53kybV1dXMUo-16" edge="1">
          <mxGeometry relative="1" as="geometry" />
        </mxCell>
        <mxCell id="WMssrNlKbdUTPQ8c-u5r-22" value="Media Item" style="rounded=1;arcSize=10;whiteSpace=wrap;html=1;align=center;" parent="1" vertex="1">
          <mxGeometry x="705" y="920" width="120" height="40" as="geometry" />
        </mxCell>
        <mxCell id="WMssrNlKbdUTPQ8c-u5r-29" style="edgeStyle=orthogonalEdgeStyle;rounded=0;orthogonalLoop=1;jettySize=auto;html=1;endArrow=none;endFill=0;shape=link;" parent="1" source="WMssrNlKbdUTPQ8c-u5r-25" target="WMssrNlKbdUTPQ8c-u5r-26" edge="1">
          <mxGeometry relative="1" as="geometry" />
        </mxCell>
        <mxCell id="nXLPthDUEr7rPw0SUE7N-2" value="" style="rounded=0;orthogonalLoop=1;jettySize=auto;html=1;endArrow=none;endFill=0;" parent="1" source="WMssrNlKbdUTPQ8c-u5r-25" target="nXLPthDUEr7rPw0SUE7N-1" edge="1">
          <mxGeometry relative="1" as="geometry" />
        </mxCell>
        <mxCell id="nXLPthDUEr7rPw0SUE7N-4" value="" style="edgeStyle=none;rounded=0;orthogonalLoop=1;jettySize=auto;html=1;endArrow=none;endFill=0;" parent="1" source="WMssrNlKbdUTPQ8c-u5r-25" target="nXLPthDUEr7rPw0SUE7N-3" edge="1">
          <mxGeometry relative="1" as="geometry" />
        </mxCell>
        <mxCell id="nXLPthDUEr7rPw0SUE7N-6" style="edgeStyle=none;rounded=0;orthogonalLoop=1;jettySize=auto;html=1;endArrow=none;endFill=0;" parent="1" source="WMssrNlKbdUTPQ8c-u5r-25" target="nXLPthDUEr7rPw0SUE7N-5" edge="1">
          <mxGeometry relative="1" as="geometry" />
        </mxCell>
        <mxCell id="nXLPthDUEr7rPw0SUE7N-10" value="" style="edgeStyle=none;rounded=0;orthogonalLoop=1;jettySize=auto;html=1;endArrow=none;endFill=0;" parent="1" source="WMssrNlKbdUTPQ8c-u5r-25" target="nXLPthDUEr7rPw0SUE7N-9" edge="1">
          <mxGeometry relative="1" as="geometry" />
        </mxCell>
        <mxCell id="ASKhyYu5Bg80DAgwvXGu-2" style="rounded=0;orthogonalLoop=1;jettySize=auto;html=1;endArrow=none;endFill=0;" parent="1" source="WMssrNlKbdUTPQ8c-u5r-25" target="ASKhyYu5Bg80DAgwvXGu-1" edge="1">
          <mxGeometry relative="1" as="geometry" />
        </mxCell>
        <mxCell id="WMssrNlKbdUTPQ8c-u5r-25" value="User" style="rounded=1;arcSize=10;whiteSpace=wrap;html=1;align=center;" parent="1" vertex="1">
          <mxGeometry x="90" y="60" width="120" height="40" as="geometry" />
        </mxCell>
        <mxCell id="cu2pedUz53kybV1dXMUo-4" style="edgeStyle=orthogonalEdgeStyle;rounded=0;orthogonalLoop=1;jettySize=auto;html=1;shape=link;" parent="1" source="WMssrNlKbdUTPQ8c-u5r-26" target="WMssrNlKbdUTPQ8c-u5r-2" edge="1">
          <mxGeometry relative="1" as="geometry" />
        </mxCell>
        <mxCell id="WMssrNlKbdUTPQ8c-u5r-26" value="O" style="ellipse;whiteSpace=wrap;html=1;" parent="1" vertex="1">
          <mxGeometry x="140" y="210" width="20" height="20" as="geometry" />
        </mxCell>
        <mxCell id="WMssrNlKbdUTPQ8c-u5r-37" style="edgeStyle=orthogonalEdgeStyle;shape=link;rounded=0;orthogonalLoop=1;jettySize=auto;html=1;endArrow=none;endFill=0;" parent="1" source="WMssrNlKbdUTPQ8c-u5r-32" target="WMssrNlKbdUTPQ8c-u5r-35" edge="1">
          <mxGeometry relative="1" as="geometry" />
        </mxCell>
        <mxCell id="nXLPthDUEr7rPw0SUE7N-31" style="edgeStyle=none;rounded=0;orthogonalLoop=1;jettySize=auto;html=1;endArrow=none;endFill=0;" parent="1" source="WMssrNlKbdUTPQ8c-u5r-32" target="nXLPthDUEr7rPw0SUE7N-30" edge="1">
          <mxGeometry relative="1" as="geometry" />
        </mxCell>
        <mxCell id="nXLPthDUEr7rPw0SUE7N-33" style="edgeStyle=none;rounded=0;orthogonalLoop=1;jettySize=auto;html=1;endArrow=none;endFill=0;" parent="1" source="WMssrNlKbdUTPQ8c-u5r-32" target="nXLPthDUEr7rPw0SUE7N-32" edge="1">
          <mxGeometry relative="1" as="geometry">
            <mxPoint x="933.4615384615383" y="530" as="sourcePoint" />
          </mxGeometry>
        </mxCell>
        <mxCell id="WMssrNlKbdUTPQ8c-u5r-32" value="Account" style="rounded=1;arcSize=10;whiteSpace=wrap;html=1;align=center;" parent="1" vertex="1">
          <mxGeometry x="360" y="420" width="120" height="40" as="geometry" />
        </mxCell>
        <mxCell id="cu2pedUz53kybV1dXMUo-6" style="edgeStyle=orthogonalEdgeStyle;rounded=0;orthogonalLoop=1;jettySize=auto;html=1;endArrow=none;endFill=0;" parent="1" source="WMssrNlKbdUTPQ8c-u5r-35" target="WMssrNlKbdUTPQ8c-u5r-1" edge="1">
          <mxGeometry relative="1" as="geometry" />
        </mxCell>
        <mxCell id="WMssrNlKbdUTPQ8c-u5r-35" value="Has" style="rhombus;whiteSpace=wrap;html=1;rounded=1;arcSize=10;" parent="1" vertex="1">
          <mxGeometry x="380" y="300" width="80" height="80" as="geometry" />
        </mxCell>
        <mxCell id="WMssrNlKbdUTPQ8c-u5r-42" style="edgeStyle=orthogonalEdgeStyle;rounded=0;orthogonalLoop=1;jettySize=auto;html=1;endArrow=none;endFill=0;" parent="1" source="WMssrNlKbdUTPQ8c-u5r-40" target="WMssrNlKbdUTPQ8c-u5r-4" edge="1">
          <mxGeometry relative="1" as="geometry">
            <Array as="points">
              <mxPoint x="760" y="550" />
              <mxPoint x="760" y="550" />
            </Array>
          </mxGeometry>
        </mxCell>
        <mxCell id="WMssrNlKbdUTPQ8c-u5r-43" style="edgeStyle=orthogonalEdgeStyle;rounded=0;orthogonalLoop=1;jettySize=auto;html=1;endArrow=none;endFill=0;" parent="1" source="WMssrNlKbdUTPQ8c-u5r-40" target="WMssrNlKbdUTPQ8c-u5r-3" edge="1">
          <mxGeometry relative="1" as="geometry">
            <Array as="points">
              <mxPoint x="720" y="400" />
              <mxPoint x="590" y="400" />
              <mxPoint x="590" y="600" />
              <mxPoint x="200" y="600" />
            </Array>
          </mxGeometry>
        </mxCell>
        <mxCell id="WMssrNlKbdUTPQ8c-u5r-40" value="Moderates" style="rhombus;whiteSpace=wrap;html=1;rounded=1;arcSize=10;" parent="1" vertex="1">
          <mxGeometry x="680" y="180" width="80" height="80" as="geometry" />
        </mxCell>
        <mxCell id="nXLPthDUEr7rPw0SUE7N-1" value="User Id" style="ellipse;whiteSpace=wrap;html=1;rounded=1;arcSize=10;fontStyle=4" parent="1" vertex="1">
          <mxGeometry x="40" y="10" width="60" height="30" as="geometry" />
        </mxCell>
        <mxCell id="nXLPthDUEr7rPw0SUE7N-3" value="First name" style="ellipse;whiteSpace=wrap;html=1;rounded=1;arcSize=10;" parent="1" vertex="1">
          <mxGeometry x="110" width="80" height="30" as="geometry" />
        </mxCell>
        <mxCell id="nXLPthDUEr7rPw0SUE7N-5" value="Last name" style="ellipse;whiteSpace=wrap;html=1;rounded=1;arcSize=10;" parent="1" vertex="1">
          <mxGeometry x="190" y="20" width="80" height="30" as="geometry" />
        </mxCell>
        <mxCell id="nXLPthDUEr7rPw0SUE7N-8" style="edgeStyle=none;rounded=0;orthogonalLoop=1;jettySize=auto;html=1;endArrow=none;endFill=0;" parent="1" source="nXLPthDUEr7rPw0SUE7N-7" target="WMssrNlKbdUTPQ8c-u5r-25" edge="1">
          <mxGeometry relative="1" as="geometry" />
        </mxCell>
        <mxCell id="nXLPthDUEr7rPw0SUE7N-7" value="Age" style="ellipse;whiteSpace=wrap;html=1;rounded=1;arcSize=10;dashed=1;" parent="1" vertex="1">
          <mxGeometry x="50" y="120" width="40" height="30" as="geometry" />
        </mxCell>
        <mxCell id="nXLPthDUEr7rPw0SUE7N-9" value="Date of&lt;br&gt;Birth" style="ellipse;whiteSpace=wrap;html=1;rounded=1;arcSize=10;" parent="1" vertex="1">
          <mxGeometry x="70" y="160" width="60" height="40" as="geometry" />
        </mxCell>
        <mxCell id="nXLPthDUEr7rPw0SUE7N-12" style="edgeStyle=none;rounded=0;orthogonalLoop=1;jettySize=auto;html=1;endArrow=none;endFill=0;" parent="1" source="nXLPthDUEr7rPw0SUE7N-11" target="WMssrNlKbdUTPQ8c-u5r-25" edge="1">
          <mxGeometry relative="1" as="geometry" />
        </mxCell>
        <mxCell id="nXLPthDUEr7rPw0SUE7N-11" value="Phone no" style="ellipse;whiteSpace=wrap;html=1;rounded=1;arcSize=10;" parent="1" vertex="1">
          <mxGeometry x="195" y="110" width="70" height="30" as="geometry" />
        </mxCell>
        <mxCell id="nXLPthDUEr7rPw0SUE7N-14" style="edgeStyle=none;rounded=0;orthogonalLoop=1;jettySize=auto;html=1;endArrow=none;endFill=0;" parent="1" source="nXLPthDUEr7rPw0SUE7N-13" target="WMssrNlKbdUTPQ8c-u5r-1" edge="1">
          <mxGeometry relative="1" as="geometry" />
        </mxCell>
        <mxCell id="nXLPthDUEr7rPw0SUE7N-13" value="Police Id" style="ellipse;whiteSpace=wrap;html=1;rounded=1;arcSize=10;fontStyle=4" parent="1" vertex="1">
          <mxGeometry x="320" y="150" width="70" height="30" as="geometry" />
        </mxCell>
        <mxCell id="nXLPthDUEr7rPw0SUE7N-15" value="Domain" style="ellipse;whiteSpace=wrap;html=1;rounded=1;arcSize=10;" parent="1" vertex="1">
          <mxGeometry x="400" y="160" width="60" height="30" as="geometry" />
        </mxCell>
        <mxCell id="nXLPthDUEr7rPw0SUE7N-18" style="edgeStyle=none;rounded=0;orthogonalLoop=1;jettySize=auto;html=1;endArrow=none;endFill=0;" parent="1" source="nXLPthDUEr7rPw0SUE7N-17" target="WMssrNlKbdUTPQ8c-u5r-1" edge="1">
          <mxGeometry relative="1" as="geometry" />
        </mxCell>
        <mxCell id="nXLPthDUEr7rPw0SUE7N-17" value="Division" style="ellipse;whiteSpace=wrap;html=1;rounded=1;arcSize=10;" parent="1" vertex="1">
          <mxGeometry x="510" y="150" width="60" height="30" as="geometry" />
        </mxCell>
        <mxCell id="nXLPthDUEr7rPw0SUE7N-20" style="edgeStyle=none;rounded=0;orthogonalLoop=1;jettySize=auto;html=1;endArrow=none;endFill=0;" parent="1" source="nXLPthDUEr7rPw0SUE7N-19" target="WMssrNlKbdUTPQ8c-u5r-1" edge="1">
          <mxGeometry relative="1" as="geometry" />
        </mxCell>
        <mxCell id="nXLPthDUEr7rPw0SUE7N-19" value="Province" style="ellipse;whiteSpace=wrap;html=1;rounded=1;arcSize=10;" parent="1" vertex="1">
          <mxGeometry x="255" y="165" width="60" height="30" as="geometry" />
        </mxCell>
        <mxCell id="nXLPthDUEr7rPw0SUE7N-21" value="Location" style="rounded=1;arcSize=10;whiteSpace=wrap;html=1;align=center;" parent="1" vertex="1">
          <mxGeometry x="120" y="920" width="120" height="40" as="geometry" />
        </mxCell>
        <mxCell id="nXLPthDUEr7rPw0SUE7N-24" style="edgeStyle=none;rounded=0;orthogonalLoop=1;jettySize=auto;html=1;endArrow=none;endFill=0;entryX=0.25;entryY=0;entryDx=0;entryDy=0;" parent="1" source="nXLPthDUEr7rPw0SUE7N-22" target="nXLPthDUEr7rPw0SUE7N-21" edge="1">
          <mxGeometry relative="1" as="geometry" />
        </mxCell>
        <mxCell id="nXLPthDUEr7rPw0SUE7N-22" value="Has" style="rhombus;whiteSpace=wrap;html=1;rounded=1;arcSize=10;" parent="1" vertex="1">
          <mxGeometry x="110" y="740" width="80" height="80" as="geometry" />
        </mxCell>
        <mxCell id="nXLPthDUEr7rPw0SUE7N-26" value="Witness Id" style="ellipse;whiteSpace=wrap;html=1;rounded=1;arcSize=10;fontStyle=4" parent="1" vertex="1">
          <mxGeometry x="15" y="280" width="80" height="30" as="geometry" />
        </mxCell>
        <mxCell id="nXLPthDUEr7rPw0SUE7N-29" style="edgeStyle=none;rounded=0;orthogonalLoop=1;jettySize=auto;html=1;endArrow=none;endFill=0;" parent="1" source="nXLPthDUEr7rPw0SUE7N-28" target="WMssrNlKbdUTPQ8c-u5r-32" edge="1">
          <mxGeometry relative="1" as="geometry" />
        </mxCell>
        <mxCell id="nXLPthDUEr7rPw0SUE7N-28" value="Email" style="ellipse;whiteSpace=wrap;html=1;rounded=1;arcSize=10;fontStyle=4" parent="1" vertex="1">
          <mxGeometry x="310" y="370" width="50" height="30" as="geometry" />
        </mxCell>
        <mxCell id="nXLPthDUEr7rPw0SUE7N-30" value="Password" style="ellipse;whiteSpace=wrap;html=1;rounded=1;arcSize=10;fontStyle=0" parent="1" vertex="1">
          <mxGeometry x="255" y="420" width="80" height="30" as="geometry" />
        </mxCell>
        <mxCell id="nXLPthDUEr7rPw0SUE7N-32" value="Account type" style="ellipse;whiteSpace=wrap;html=1;rounded=1;arcSize=10;fontStyle=0" parent="1" vertex="1">
          <mxGeometry x="460" y="480" width="90" height="30" as="geometry" />
        </mxCell>
        <mxCell id="nXLPthDUEr7rPw0SUE7N-40" style="edgeStyle=none;rounded=0;orthogonalLoop=1;jettySize=auto;html=1;endArrow=none;endFill=0;" parent="1" source="nXLPthDUEr7rPw0SUE7N-39" target="WMssrNlKbdUTPQ8c-u5r-3" edge="1">
          <mxGeometry relative="1" as="geometry" />
        </mxCell>
        <mxCell id="nXLPthDUEr7rPw0SUE7N-39" value="Report Id" style="ellipse;whiteSpace=wrap;html=1;rounded=1;arcSize=10;fontStyle=4" parent="1" vertex="1">
          <mxGeometry x="15" y="610" width="70" height="30" as="geometry" />
        </mxCell>
        <mxCell id="nXLPthDUEr7rPw0SUE7N-41" value="Title" style="ellipse;whiteSpace=wrap;html=1;rounded=1;arcSize=10;fontStyle=0" parent="1" vertex="1">
          <mxGeometry x="20" y="690" width="50" height="30" as="geometry" />
        </mxCell>
        <mxCell id="nXLPthDUEr7rPw0SUE7N-44" style="edgeStyle=none;rounded=0;orthogonalLoop=1;jettySize=auto;html=1;endArrow=none;endFill=0;" parent="1" source="nXLPthDUEr7rPw0SUE7N-43" target="WMssrNlKbdUTPQ8c-u5r-3" edge="1">
          <mxGeometry relative="1" as="geometry" />
        </mxCell>
        <mxCell id="nXLPthDUEr7rPw0SUE7N-43" value="Description" style="ellipse;whiteSpace=wrap;html=1;rounded=1;arcSize=10;fontStyle=0" parent="1" vertex="1">
          <mxGeometry x="30" y="730" width="80" height="30" as="geometry" />
        </mxCell>
        <mxCell id="nXLPthDUEr7rPw0SUE7N-45" value="Date" style="ellipse;whiteSpace=wrap;html=1;rounded=1;arcSize=10;fontStyle=0" parent="1" vertex="1">
          <mxGeometry x="170" y="700" width="50" height="30" as="geometry" />
        </mxCell>
        <mxCell id="nXLPthDUEr7rPw0SUE7N-48" style="edgeStyle=none;rounded=0;orthogonalLoop=1;jettySize=auto;html=1;endArrow=none;endFill=0;" parent="1" source="nXLPthDUEr7rPw0SUE7N-47" target="WMssrNlKbdUTPQ8c-u5r-4" edge="1">
          <mxGeometry relative="1" as="geometry" />
        </mxCell>
        <mxCell id="nXLPthDUEr7rPw0SUE7N-47" value="Title" style="ellipse;whiteSpace=wrap;html=1;rounded=1;arcSize=10;fontStyle=0" parent="1" vertex="1">
          <mxGeometry x="780" y="590" width="50" height="30" as="geometry" />
        </mxCell>
        <mxCell id="nXLPthDUEr7rPw0SUE7N-49" value="Description" style="ellipse;whiteSpace=wrap;html=1;rounded=1;arcSize=10;fontStyle=0" parent="1" vertex="1">
          <mxGeometry x="760" y="720" width="80" height="30" as="geometry" />
        </mxCell>
        <mxCell id="nXLPthDUEr7rPw0SUE7N-52" style="edgeStyle=none;rounded=0;orthogonalLoop=1;jettySize=auto;html=1;endArrow=none;endFill=0;" parent="1" source="nXLPthDUEr7rPw0SUE7N-51" target="WMssrNlKbdUTPQ8c-u5r-4" edge="1">
          <mxGeometry relative="1" as="geometry" />
        </mxCell>
        <mxCell id="nXLPthDUEr7rPw0SUE7N-51" value="Date" style="ellipse;whiteSpace=wrap;html=1;rounded=1;arcSize=10;fontStyle=0" parent="1" vertex="1">
          <mxGeometry x="620" y="690" width="50" height="30" as="geometry" />
        </mxCell>
        <mxCell id="nXLPthDUEr7rPw0SUE7N-53" value="Media_Id" style="ellipse;whiteSpace=wrap;html=1;rounded=1;arcSize=10;fontStyle=4" parent="1" vertex="1">
          <mxGeometry x="620" y="930" width="70" height="30" as="geometry" />
        </mxCell>
        <mxCell id="nXLPthDUEr7rPw0SUE7N-55" value="Media_url" style="ellipse;whiteSpace=wrap;html=1;rounded=1;arcSize=10;fontStyle=0" parent="1" vertex="1">
          <mxGeometry x="650" y="980" width="70" height="30" as="geometry" />
        </mxCell>
        <mxCell id="nXLPthDUEr7rPw0SUE7N-58" style="edgeStyle=none;rounded=0;orthogonalLoop=1;jettySize=auto;html=1;endArrow=none;endFill=0;" parent="1" source="nXLPthDUEr7rPw0SUE7N-57" target="nXLPthDUEr7rPw0SUE7N-21" edge="1">
          <mxGeometry relative="1" as="geometry" />
        </mxCell>
        <mxCell id="nXLPthDUEr7rPw0SUE7N-57" value="Location Id" style="ellipse;whiteSpace=wrap;html=1;rounded=1;arcSize=10;fontStyle=4" parent="1" vertex="1">
          <mxGeometry x="40" y="880" width="80" height="30" as="geometry" />
        </mxCell>
        <mxCell id="nXLPthDUEr7rPw0SUE7N-60" style="edgeStyle=none;rounded=0;orthogonalLoop=1;jettySize=auto;html=1;endArrow=none;endFill=0;" parent="1" source="nXLPthDUEr7rPw0SUE7N-59" target="nXLPthDUEr7rPw0SUE7N-21" edge="1">
          <mxGeometry relative="1" as="geometry" />
        </mxCell>
        <mxCell id="nXLPthDUEr7rPw0SUE7N-59" value="No" style="ellipse;whiteSpace=wrap;html=1;rounded=1;arcSize=10;fontStyle=0" parent="1" vertex="1">
          <mxGeometry x="45" y="920" width="40" height="30" as="geometry" />
        </mxCell>
        <mxCell id="nXLPthDUEr7rPw0SUE7N-69" style="edgeStyle=none;rounded=0;orthogonalLoop=1;jettySize=auto;html=1;endArrow=none;endFill=0;" parent="1" source="nXLPthDUEr7rPw0SUE7N-61" target="nXLPthDUEr7rPw0SUE7N-21" edge="1">
          <mxGeometry relative="1" as="geometry" />
        </mxCell>
        <mxCell id="nXLPthDUEr7rPw0SUE7N-61" value="Street 1" style="ellipse;whiteSpace=wrap;html=1;rounded=1;arcSize=10;fontStyle=0" parent="1" vertex="1">
          <mxGeometry x="30" y="960" width="70" height="30" as="geometry" />
        </mxCell>
        <mxCell id="nXLPthDUEr7rPw0SUE7N-68" style="edgeStyle=none;rounded=0;orthogonalLoop=1;jettySize=auto;html=1;endArrow=none;endFill=0;" parent="1" source="nXLPthDUEr7rPw0SUE7N-62" target="nXLPthDUEr7rPw0SUE7N-21" edge="1">
          <mxGeometry relative="1" as="geometry" />
        </mxCell>
        <mxCell id="nXLPthDUEr7rPw0SUE7N-62" value="Street 2" style="ellipse;whiteSpace=wrap;html=1;rounded=1;arcSize=10;fontStyle=0" parent="1" vertex="1">
          <mxGeometry x="60" y="1000" width="70" height="30" as="geometry" />
        </mxCell>
        <mxCell id="nXLPthDUEr7rPw0SUE7N-67" style="edgeStyle=none;rounded=0;orthogonalLoop=1;jettySize=auto;html=1;endArrow=none;endFill=0;" parent="1" source="nXLPthDUEr7rPw0SUE7N-63" target="nXLPthDUEr7rPw0SUE7N-21" edge="1">
          <mxGeometry relative="1" as="geometry" />
        </mxCell>
        <mxCell id="nXLPthDUEr7rPw0SUE7N-63" value="Street 3" style="ellipse;whiteSpace=wrap;html=1;rounded=1;arcSize=10;fontStyle=0" parent="1" vertex="1">
          <mxGeometry x="140" y="1000" width="70" height="30" as="geometry" />
        </mxCell>
        <mxCell id="nXLPthDUEr7rPw0SUE7N-66" style="edgeStyle=none;rounded=0;orthogonalLoop=1;jettySize=auto;html=1;endArrow=none;endFill=0;" parent="1" source="nXLPthDUEr7rPw0SUE7N-64" target="nXLPthDUEr7rPw0SUE7N-21" edge="1">
          <mxGeometry relative="1" as="geometry" />
        </mxCell>
        <mxCell id="nXLPthDUEr7rPw0SUE7N-64" value="City" style="ellipse;whiteSpace=wrap;html=1;rounded=1;arcSize=10;fontStyle=0" parent="1" vertex="1">
          <mxGeometry x="265" y="920" width="40" height="30" as="geometry" />
        </mxCell>
        <mxCell id="nXLPthDUEr7rPw0SUE7N-71" style="edgeStyle=none;rounded=0;orthogonalLoop=1;jettySize=auto;html=1;endArrow=none;endFill=0;" parent="1" source="nXLPthDUEr7rPw0SUE7N-70" target="nXLPthDUEr7rPw0SUE7N-21" edge="1">
          <mxGeometry relative="1" as="geometry" />
        </mxCell>
        <mxCell id="nXLPthDUEr7rPw0SUE7N-70" value="Province" style="ellipse;whiteSpace=wrap;html=1;rounded=1;arcSize=10;fontStyle=0" parent="1" vertex="1">
          <mxGeometry x="225" y="995" width="70" height="30" as="geometry" />
        </mxCell>
        <mxCell id="zEJbkuY8wD9b35PMSP6j-1" value="Evidence Id" style="ellipse;whiteSpace=wrap;html=1;rounded=1;arcSize=10;fontStyle=4" parent="1" vertex="1">
          <mxGeometry x="610" y="600" width="90" height="30" as="geometry" />
        </mxCell>
        <mxCell id="ASKhyYu5Bg80DAgwvXGu-1" value="Gender" style="ellipse;whiteSpace=wrap;html=1;rounded=1;arcSize=10;" parent="1" vertex="1">
          <mxGeometry x="250" y="65" width="70" height="30" as="geometry" />
        </mxCell>
        <mxCell id="ASKhyYu5Bg80DAgwvXGu-3" value="1" style="text;html=1;align=center;verticalAlign=middle;resizable=0;points=[];autosize=1;strokeColor=none;fillColor=none;" parent="1" vertex="1">
          <mxGeometry x="390" y="280" width="30" height="30" as="geometry" />
        </mxCell>
        <mxCell id="ASKhyYu5Bg80DAgwvXGu-8" value="M" style="text;html=1;align=center;verticalAlign=middle;resizable=0;points=[];autosize=1;strokeColor=none;fillColor=none;" parent="1" vertex="1">
          <mxGeometry x="685" y="260" width="30" height="30" as="geometry" />
        </mxCell>
        <mxCell id="ASKhyYu5Bg80DAgwvXGu-9" value="M" style="text;html=1;align=center;verticalAlign=middle;resizable=0;points=[];autosize=1;strokeColor=none;fillColor=none;" parent="1" vertex="1">
          <mxGeometry x="760" y="220" width="30" height="30" as="geometry" />
        </mxCell>
        <mxCell id="ASKhyYu5Bg80DAgwvXGu-10" value="1" style="text;html=1;align=center;verticalAlign=middle;resizable=0;points=[];autosize=1;strokeColor=none;fillColor=none;" parent="1" vertex="1">
          <mxGeometry x="655" y="190" width="30" height="30" as="geometry" />
        </mxCell>
        <mxCell id="ASKhyYu5Bg80DAgwvXGu-11" value="M" style="text;html=1;align=center;verticalAlign=middle;resizable=0;points=[];autosize=1;strokeColor=none;fillColor=none;" parent="1" vertex="1">
          <mxGeometry x="460" y="660" width="30" height="30" as="geometry" />
        </mxCell>
        <mxCell id="ASKhyYu5Bg80DAgwvXGu-12" value="1" style="text;html=1;align=center;verticalAlign=middle;resizable=0;points=[];autosize=1;strokeColor=none;fillColor=none;" parent="1" vertex="1">
          <mxGeometry x="350" y="660" width="30" height="30" as="geometry" />
        </mxCell>
        <mxCell id="ASKhyYu5Bg80DAgwvXGu-13" value="1" style="text;html=1;align=center;verticalAlign=middle;resizable=0;points=[];autosize=1;strokeColor=none;fillColor=none;" parent="1" vertex="1">
          <mxGeometry x="125" y="720" width="30" height="30" as="geometry" />
        </mxCell>
        <mxCell id="ASKhyYu5Bg80DAgwvXGu-14" value="1" style="text;html=1;align=center;verticalAlign=middle;resizable=0;points=[];autosize=1;strokeColor=none;fillColor=none;" parent="1" vertex="1">
          <mxGeometry x="125" y="820" width="30" height="30" as="geometry" />
        </mxCell>
        <mxCell id="ASKhyYu5Bg80DAgwvXGu-15" value="M" style="text;html=1;align=center;verticalAlign=middle;resizable=0;points=[];autosize=1;strokeColor=none;fillColor=none;" parent="1" vertex="1">
          <mxGeometry x="724.5" y="770" width="30" height="30" as="geometry" />
        </mxCell>
        <mxCell id="ASKhyYu5Bg80DAgwvXGu-16" value="1" style="text;html=1;align=center;verticalAlign=middle;resizable=0;points=[];autosize=1;strokeColor=none;fillColor=none;" parent="1" vertex="1">
          <mxGeometry x="680" y="830" width="30" height="30" as="geometry" />
        </mxCell>
        <mxCell id="ASKhyYu5Bg80DAgwvXGu-17" value="1" style="text;html=1;align=center;verticalAlign=middle;resizable=0;points=[];autosize=1;strokeColor=none;fillColor=none;" parent="1" vertex="1">
          <mxGeometry x="664.5" y="730" width="30" height="30" as="geometry" />
        </mxCell>
        <mxCell id="cu2pedUz53kybV1dXMUo-7" value="1" style="text;html=1;align=center;verticalAlign=middle;resizable=0;points=[];autosize=1;strokeColor=none;fillColor=none;" parent="1" vertex="1">
          <mxGeometry x="425" y="380" width="30" height="30" as="geometry" />
        </mxCell>
        <mxCell id="cu2pedUz53kybV1dXMUo-9" value="1" style="text;html=1;align=center;verticalAlign=middle;resizable=0;points=[];autosize=1;strokeColor=none;fillColor=none;" parent="1" vertex="1">
          <mxGeometry x="350" y="310" width="30" height="30" as="geometry" />
        </mxCell>
        <mxCell id="cu2pedUz53kybV1dXMUo-10" value="M" style="text;html=1;align=center;verticalAlign=middle;resizable=0;points=[];autosize=1;strokeColor=none;fillColor=none;" parent="1" vertex="1">
          <mxGeometry x="70" y="485" width="30" height="30" as="geometry" />
        </mxCell>
        <mxCell id="cu2pedUz53kybV1dXMUo-11" value="N" style="text;html=1;align=center;verticalAlign=middle;resizable=0;points=[];autosize=1;strokeColor=none;fillColor=none;" parent="1" vertex="1">
          <mxGeometry x="95" y="390" width="30" height="30" as="geometry" />
        </mxCell>
        <mxCell id="cu2pedUz53kybV1dXMUo-12" value="M" style="text;html=1;align=center;verticalAlign=middle;resizable=0;points=[];autosize=1;strokeColor=none;fillColor=none;" parent="1" vertex="1">
          <mxGeometry x="125" y="535" width="30" height="30" as="geometry" />
        </mxCell>
        <mxCell id="cu2pedUz53kybV1dXMUo-13" value="1" style="text;html=1;align=center;verticalAlign=middle;resizable=0;points=[];autosize=1;strokeColor=none;fillColor=none;" parent="1" vertex="1">
          <mxGeometry x="140" y="435" width="30" height="30" as="geometry" />
        </mxCell>
        <mxCell id="cu2pedUz53kybV1dXMUo-14" value="M" style="text;html=1;align=center;verticalAlign=middle;resizable=0;points=[];autosize=1;strokeColor=none;fillColor=none;" parent="1" vertex="1">
          <mxGeometry x="235" y="520" width="30" height="30" as="geometry" />
        </mxCell>
        <mxCell id="cu2pedUz53kybV1dXMUo-15" value="1" style="text;html=1;align=center;verticalAlign=middle;resizable=0;points=[];autosize=1;strokeColor=none;fillColor=none;" parent="1" vertex="1">
          <mxGeometry x="195" y="485" width="30" height="30" as="geometry" />
        </mxCell>
        <mxCell id="cu2pedUz53kybV1dXMUo-16" value="Media Type" style="ellipse;whiteSpace=wrap;html=1;rounded=1;arcSize=10;fontStyle=0" parent="1" vertex="1">
          <mxGeometry x="775.5" y="980" width="70" height="30" as="geometry" />
        </mxCell>
        <mxCell id="i11OL5czswdU-LCwZtd8-5" style="rounded=0;orthogonalLoop=1;jettySize=auto;html=1;endArrow=none;endFill=0;" edge="1" parent="1" source="i11OL5czswdU-LCwZtd8-4" target="WMssrNlKbdUTPQ8c-u5r-25">
          <mxGeometry relative="1" as="geometry" />
        </mxCell>
        <mxCell id="i11OL5czswdU-LCwZtd8-4" value="NIC" style="ellipse;whiteSpace=wrap;html=1;rounded=1;arcSize=10;fontStyle=4" vertex="1" parent="1">
          <mxGeometry x="15" y="65" width="50" height="30" as="geometry" />
        </mxCell>
      </root>
    </mxGraphModel>
  </diagram>
  <diagram id="L68rvXMoLLoeLJlKorHr" name="ClassDiagram Services">
    <mxGraphModel dx="1406" dy="818" grid="1" gridSize="10" guides="1" tooltips="1" connect="1" arrows="1" fold="1" page="1" pageScale="1" pageWidth="850" pageHeight="1100" math="0" shadow="0">
      <root>
        <mxCell id="0" />
        <mxCell id="1" parent="0" />
        <mxCell id="PaeEdzgUaCn_I9LU4ARf-1" style="edgeStyle=none;rounded=0;orthogonalLoop=1;jettySize=auto;html=1;dashed=1;startArrow=oval;startFill=1;endArrow=block;endFill=0;" parent="1" source="qCFcDA6FX-_whzbPICCv-3" target="qCFcDA6FX-_whzbPICCv-5" edge="1">
          <mxGeometry relative="1" as="geometry" />
        </mxCell>
        <mxCell id="qCFcDA6FX-_whzbPICCv-3" value="&lt;p style=&quot;margin:0px;margin-top:4px;text-align:center;&quot;&gt;&lt;i&gt;&amp;lt;&amp;lt;Interface&amp;gt;&amp;gt;&lt;/i&gt;&lt;br&gt;&lt;b&gt;IRepository&amp;lt;T&amp;gt;&lt;/b&gt;&lt;/p&gt;&lt;hr size=&quot;1&quot;&gt;&lt;p style=&quot;margin:0px;margin-left:4px;&quot;&gt;&lt;br&gt;&lt;/p&gt;&lt;hr size=&quot;1&quot;&gt;&lt;p style=&quot;margin:0px;margin-left:4px;&quot;&gt;+ Create (doc): T&lt;br&gt;+ GetById (id): T&lt;/p&gt;&lt;p style=&quot;margin:0px;margin-left:4px;&quot;&gt;+ GetAll (): T[]&lt;/p&gt;&lt;p style=&quot;margin:0px;margin-left:4px;&quot;&gt;+ GetByFilter (filter): T[]&lt;/p&gt;&lt;p style=&quot;margin:0px;margin-left:4px;&quot;&gt;+ Update (): T&lt;/p&gt;&lt;p style=&quot;margin:0px;margin-left:4px;&quot;&gt;+ UpdateById (id): T&lt;br&gt;&lt;/p&gt;&lt;p style=&quot;margin:0px;margin-left:4px;&quot;&gt;+ UpdateByFilter (filter): T&lt;/p&gt;&lt;p style=&quot;margin: 0px 0px 0px 4px;&quot;&gt;+ DeleteById (id): boolean&lt;br&gt;&lt;/p&gt;&lt;p style=&quot;margin: 0px 0px 0px 4px;&quot;&gt;+ DeleteByFilter (filter): boolean&lt;/p&gt;" style="verticalAlign=top;align=left;overflow=fill;fontSize=12;fontFamily=Helvetica;html=1;" parent="1" vertex="1">
          <mxGeometry x="333" y="260" width="185" height="210" as="geometry" />
        </mxCell>
        <mxCell id="qCFcDA6FX-_whzbPICCv-5" value="&lt;p style=&quot;margin:0px;margin-top:4px;text-align:center;&quot;&gt;&lt;b&gt;Repository&amp;lt;T&amp;gt;&lt;/b&gt;&lt;/p&gt;&lt;hr size=&quot;1&quot;&gt;&lt;p style=&quot;margin:0px;margin-left:4px;&quot;&gt;- _model:Model&amp;lt;T&amp;gt;&lt;/p&gt;&lt;hr size=&quot;1&quot;&gt;&lt;p style=&quot;margin: 0px 0px 0px 4px;&quot;&gt;+ Create (doc): T&lt;br&gt;+ GetById (id): T&lt;/p&gt;&lt;p style=&quot;margin: 0px 0px 0px 4px;&quot;&gt;+ GetAll (): T&lt;/p&gt;&lt;p style=&quot;margin: 0px 0px 0px 4px;&quot;&gt;+ GetByFilter (filter): T&lt;/p&gt;&lt;p style=&quot;margin: 0px 0px 0px 4px;&quot;&gt;+ Update (): T&lt;/p&gt;&lt;p style=&quot;margin: 0px 0px 0px 4px;&quot;&gt;+ UpdateById (id): T&lt;br&gt;&lt;/p&gt;&lt;p style=&quot;margin: 0px 0px 0px 4px;&quot;&gt;+ UpdateByFilter (filter): T&lt;/p&gt;&lt;p style=&quot;margin: 0px 0px 0px 4px;&quot;&gt;+ DeleteById (id): boolean&lt;br&gt;&lt;/p&gt;&lt;p style=&quot;margin: 0px 0px 0px 4px;&quot;&gt;+ DeleteByFilter (filter): boolean&lt;/p&gt;" style="verticalAlign=top;align=left;overflow=fill;fontSize=12;fontFamily=Helvetica;html=1;" parent="1" vertex="1">
          <mxGeometry x="332" y="540" width="187" height="200" as="geometry" />
        </mxCell>
        <mxCell id="qCFcDA6FX-_whzbPICCv-15" style="edgeStyle=none;rounded=0;orthogonalLoop=1;jettySize=auto;html=1;dashed=1;startArrow=oval;startFill=1;endArrow=classic;endFill=1;" parent="1" source="qCFcDA6FX-_whzbPICCv-7" target="qCFcDA6FX-_whzbPICCv-5" edge="1">
          <mxGeometry relative="1" as="geometry" />
        </mxCell>
        <mxCell id="PaeEdzgUaCn_I9LU4ARf-7" style="edgeStyle=orthogonalEdgeStyle;rounded=0;orthogonalLoop=1;jettySize=auto;html=1;startArrow=diamondThin;startFill=0;endArrow=oval;endFill=1;" parent="1" source="qCFcDA6FX-_whzbPICCv-7" target="qCFcDA6FX-_whzbPICCv-3" edge="1">
          <mxGeometry relative="1" as="geometry">
            <Array as="points">
              <mxPoint x="360" y="200" />
            </Array>
          </mxGeometry>
        </mxCell>
        <mxCell id="qCFcDA6FX-_whzbPICCv-7" value="&lt;p style=&quot;margin:0px;margin-top:4px;text-align:center;&quot;&gt;&lt;b&gt;WitnessAccountService&lt;/b&gt;&lt;/p&gt;&lt;hr size=&quot;1&quot;&gt;&lt;p style=&quot;margin:0px;margin-left:4px;&quot;&gt;&lt;/p&gt;&lt;span style=&quot;&quot;&gt;&amp;nbsp;- _witnessRepository: IRepository&amp;lt;Witness&amp;gt;&lt;/span&gt;&lt;hr size=&quot;1&quot;&gt;&lt;p style=&quot;margin:0px;margin-left:4px;&quot;&gt;+ Signin(): Witness&lt;/p&gt;" style="verticalAlign=top;align=left;overflow=fill;fontSize=12;fontFamily=Helvetica;html=1;" parent="1" vertex="1">
          <mxGeometry x="40" y="160" width="250" height="80" as="geometry" />
        </mxCell>
        <mxCell id="qCFcDA6FX-_whzbPICCv-16" style="edgeStyle=none;rounded=0;orthogonalLoop=1;jettySize=auto;html=1;dashed=1;startArrow=oval;startFill=1;endArrow=classic;endFill=1;" parent="1" source="qCFcDA6FX-_whzbPICCv-9" target="qCFcDA6FX-_whzbPICCv-5" edge="1">
          <mxGeometry relative="1" as="geometry" />
        </mxCell>
        <mxCell id="PaeEdzgUaCn_I9LU4ARf-6" style="edgeStyle=orthogonalEdgeStyle;rounded=0;orthogonalLoop=1;jettySize=auto;html=1;startArrow=diamondThin;startFill=0;endArrow=oval;endFill=1;" parent="1" source="qCFcDA6FX-_whzbPICCv-9" target="qCFcDA6FX-_whzbPICCv-3" edge="1">
          <mxGeometry relative="1" as="geometry">
            <Array as="points">
              <mxPoint x="330" y="380" />
              <mxPoint x="330" y="380" />
            </Array>
          </mxGeometry>
        </mxCell>
        <mxCell id="qCFcDA6FX-_whzbPICCv-9" value="&lt;p style=&quot;margin:0px;margin-top:4px;text-align:center;&quot;&gt;&lt;b&gt;ModeratorAccountService&lt;/b&gt;&lt;/p&gt;&lt;hr size=&quot;1&quot;&gt;&lt;p style=&quot;margin:0px;margin-left:4px;&quot;&gt;&lt;/p&gt;&lt;span style=&quot;&quot;&gt;&amp;nbsp;- _moderatorRepository: IRepository&amp;lt;Moderator&amp;gt;&lt;/span&gt;&lt;hr size=&quot;1&quot;&gt;&lt;p style=&quot;margin:0px;margin-left:4px;&quot;&gt;+ Signin(): Moderator&lt;/p&gt;" style="verticalAlign=top;align=left;overflow=fill;fontSize=12;fontFamily=Helvetica;html=1;" parent="1" vertex="1">
          <mxGeometry x="30" y="340" width="270" height="80" as="geometry" />
        </mxCell>
        <mxCell id="qCFcDA6FX-_whzbPICCv-17" style="edgeStyle=none;rounded=0;orthogonalLoop=1;jettySize=auto;html=1;dashed=1;startArrow=oval;startFill=1;endArrow=classic;endFill=1;" parent="1" source="qCFcDA6FX-_whzbPICCv-12" target="qCFcDA6FX-_whzbPICCv-5" edge="1">
          <mxGeometry relative="1" as="geometry" />
        </mxCell>
        <mxCell id="PaeEdzgUaCn_I9LU4ARf-5" style="edgeStyle=orthogonalEdgeStyle;rounded=0;orthogonalLoop=1;jettySize=auto;html=1;startArrow=diamondThin;startFill=0;endArrow=oval;endFill=1;" parent="1" source="qCFcDA6FX-_whzbPICCv-12" target="qCFcDA6FX-_whzbPICCv-3" edge="1">
          <mxGeometry relative="1" as="geometry">
            <Array as="points">
              <mxPoint x="160" y="450" />
            </Array>
          </mxGeometry>
        </mxCell>
        <mxCell id="qCFcDA6FX-_whzbPICCv-12" value="&lt;p style=&quot;margin:0px;margin-top:4px;text-align:center;&quot;&gt;&lt;b&gt;ReportService&lt;/b&gt;&lt;/p&gt;&lt;hr size=&quot;1&quot;&gt;&lt;p style=&quot;margin:0px;margin-left:4px;&quot;&gt;&lt;/p&gt;&lt;span style=&quot;&quot;&gt;&amp;nbsp;- _reportRepository: IRepository&amp;lt;Report&amp;gt;&lt;/span&gt;&lt;hr size=&quot;1&quot;&gt;&lt;p style=&quot;margin:0px;margin-left:4px;&quot;&gt;+ StarReport(): boolean&lt;/p&gt;" style="verticalAlign=top;align=left;overflow=fill;fontSize=12;fontFamily=Helvetica;html=1;" parent="1" vertex="1">
          <mxGeometry x="35" y="530" width="260" height="80" as="geometry" />
        </mxCell>
        <mxCell id="qCFcDA6FX-_whzbPICCv-18" style="edgeStyle=none;rounded=0;orthogonalLoop=1;jettySize=auto;html=1;dashed=1;startArrow=oval;startFill=1;endArrow=classic;endFill=1;" parent="1" source="qCFcDA6FX-_whzbPICCv-14" target="qCFcDA6FX-_whzbPICCv-5" edge="1">
          <mxGeometry relative="1" as="geometry" />
        </mxCell>
        <mxCell id="PaeEdzgUaCn_I9LU4ARf-4" style="edgeStyle=orthogonalEdgeStyle;rounded=0;orthogonalLoop=1;jettySize=auto;html=1;startArrow=diamondThin;startFill=0;endArrow=oval;endFill=1;" parent="1" source="qCFcDA6FX-_whzbPICCv-14" target="qCFcDA6FX-_whzbPICCv-3" edge="1">
          <mxGeometry relative="1" as="geometry">
            <Array as="points">
              <mxPoint x="230" y="640" />
              <mxPoint x="310" y="640" />
              <mxPoint x="310" y="510" />
              <mxPoint x="360" y="510" />
            </Array>
          </mxGeometry>
        </mxCell>
        <mxCell id="qCFcDA6FX-_whzbPICCv-14" value="&lt;p style=&quot;margin:0px;margin-top:4px;text-align:center;&quot;&gt;&lt;b&gt;NotificationService&lt;/b&gt;&lt;/p&gt;&lt;hr size=&quot;1&quot;&gt;&lt;p style=&quot;margin:0px;margin-left:4px;&quot;&gt;&lt;/p&gt;&lt;span style=&quot;&quot;&gt;&amp;nbsp;- _notificationRepository: IRepository&amp;lt;Notification&amp;gt;&lt;br&gt;&lt;/span&gt;&lt;span style=&quot;&quot;&gt;&amp;nbsp;&lt;/span&gt;- _witnessRepository: IRepository&amp;lt;Witness&amp;gt;&lt;br&gt;&lt;span style=&quot;&quot;&gt;&amp;nbsp;&lt;/span&gt;- _moderatorRepository: IRepository&amp;lt;Moderator&amp;gt;&lt;span style=&quot;&quot;&gt;&lt;br&gt;&lt;/span&gt;&lt;hr size=&quot;1&quot;&gt;&lt;p style=&quot;margin:0px;margin-left:4px;&quot;&gt;+ NewNotificationForWitness(notification): Notification&lt;/p&gt;&lt;p style=&quot;margin:0px;margin-left:4px;&quot;&gt;+ NewNotificationForModerator(notification): Notification&lt;br&gt;&lt;/p&gt;&lt;p style=&quot;margin:0px;margin-left:4px;&quot;&gt;+ NewNotificationSeen(notificationId): boolean&lt;br&gt;&lt;/p&gt;" style="verticalAlign=top;align=left;overflow=fill;fontSize=12;fontFamily=Helvetica;html=1;" parent="1" vertex="1">
          <mxGeometry x="10" y="720" width="310" height="130" as="geometry" />
        </mxCell>
        <mxCell id="qCFcDA6FX-_whzbPICCv-21" style="edgeStyle=none;rounded=0;orthogonalLoop=1;jettySize=auto;html=1;dashed=1;startArrow=oval;startFill=1;endArrow=classic;endFill=1;" parent="1" source="qCFcDA6FX-_whzbPICCv-19" target="qCFcDA6FX-_whzbPICCv-5" edge="1">
          <mxGeometry relative="1" as="geometry" />
        </mxCell>
        <mxCell id="PaeEdzgUaCn_I9LU4ARf-8" style="edgeStyle=orthogonalEdgeStyle;rounded=0;orthogonalLoop=1;jettySize=auto;html=1;startArrow=diamondThin;startFill=0;endArrow=oval;endFill=1;" parent="1" source="qCFcDA6FX-_whzbPICCv-19" target="qCFcDA6FX-_whzbPICCv-3" edge="1">
          <mxGeometry relative="1" as="geometry">
            <Array as="points">
              <mxPoint x="490" y="220" />
            </Array>
          </mxGeometry>
        </mxCell>
        <mxCell id="qCFcDA6FX-_whzbPICCv-19" value="&lt;p style=&quot;margin:0px;margin-top:4px;text-align:center;&quot;&gt;&lt;b&gt;ModeratorReportService&lt;/b&gt;&lt;/p&gt;&lt;hr size=&quot;1&quot;&gt;&lt;p style=&quot;margin:0px;margin-left:4px;&quot;&gt;&lt;/p&gt;&lt;span style=&quot;&quot;&gt;&amp;nbsp;&lt;/span&gt;- _reportRepository: IRepository&amp;lt;Report&amp;gt;&lt;span style=&quot;&quot;&gt;&lt;br&gt;&lt;/span&gt;&lt;hr size=&quot;1&quot;&gt;&lt;p style=&quot;margin:0px;margin-left:4px;&quot;&gt;+ Approve (reportId): boolean&lt;/p&gt;&lt;p style=&quot;margin:0px;margin-left:4px;&quot;&gt;+ Declince (reportId): boolean&lt;br&gt;&lt;/p&gt;&lt;p style=&quot;margin:0px;margin-left:4px;&quot;&gt;+ Review (reportId): boolean&lt;br&gt;&lt;/p&gt;&lt;p style=&quot;margin:0px;margin-left:4px;&quot;&gt;+ BeModerator (moderatorId): boolean&lt;/p&gt;" style="verticalAlign=top;align=left;overflow=fill;fontSize=12;fontFamily=Helvetica;html=1;" parent="1" vertex="1">
          <mxGeometry x="570" y="160" width="230" height="120" as="geometry" />
        </mxCell>
        <mxCell id="qCFcDA6FX-_whzbPICCv-24" style="edgeStyle=none;rounded=0;orthogonalLoop=1;jettySize=auto;html=1;dashed=1;startArrow=oval;startFill=1;endArrow=classic;endFill=1;" parent="1" source="qCFcDA6FX-_whzbPICCv-20" target="qCFcDA6FX-_whzbPICCv-5" edge="1">
          <mxGeometry relative="1" as="geometry" />
        </mxCell>
        <mxCell id="PaeEdzgUaCn_I9LU4ARf-2" style="edgeStyle=orthogonalEdgeStyle;rounded=0;orthogonalLoop=1;jettySize=auto;html=1;startArrow=diamondThin;startFill=0;endArrow=oval;endFill=1;" parent="1" source="qCFcDA6FX-_whzbPICCv-20" target="qCFcDA6FX-_whzbPICCv-3" edge="1">
          <mxGeometry relative="1" as="geometry">
            <Array as="points">
              <mxPoint x="680" y="510" />
              <mxPoint x="490" y="510" />
            </Array>
          </mxGeometry>
        </mxCell>
        <mxCell id="qCFcDA6FX-_whzbPICCv-20" value="&lt;p style=&quot;margin:0px;margin-top:4px;text-align:center;&quot;&gt;&lt;b&gt;NotificationService&lt;/b&gt;&lt;/p&gt;&lt;hr size=&quot;1&quot;&gt;&lt;p style=&quot;margin:0px;margin-left:4px;&quot;&gt;&lt;/p&gt;&lt;span style=&quot;&quot;&gt;&amp;nbsp;&lt;/span&gt;- _evidenceRepository: IRepository&amp;lt;Evidence&amp;gt;&lt;br&gt;&lt;span style=&quot;&quot;&gt;&amp;nbsp;&lt;/span&gt;- _reportRepository: IRepository&amp;lt;Report&amp;gt;&lt;span style=&quot;&quot;&gt;&lt;br&gt;&lt;/span&gt;&lt;hr size=&quot;1&quot;&gt;&lt;p style=&quot;margin:0px;margin-left:4px;&quot;&gt;+ AddNewToReport(reportId, evidence): Evidence&lt;/p&gt;&lt;p style=&quot;margin:0px;margin-left:4px;&quot;&gt;+ GetAllForReport(reportId): Evidence[]&lt;br&gt;&lt;/p&gt;&lt;p style=&quot;margin:0px;margin-left:4px;&quot;&gt;+ Remove(evidenceId): boolean&lt;br&gt;&lt;/p&gt;" style="verticalAlign=top;align=left;overflow=fill;fontSize=12;fontFamily=Helvetica;html=1;" parent="1" vertex="1">
          <mxGeometry x="545" y="730" width="280" height="120" as="geometry" />
        </mxCell>
        <mxCell id="qCFcDA6FX-_whzbPICCv-23" style="edgeStyle=none;rounded=0;orthogonalLoop=1;jettySize=auto;html=1;dashed=1;startArrow=oval;startFill=1;endArrow=classic;endFill=1;" parent="1" source="qCFcDA6FX-_whzbPICCv-22" target="qCFcDA6FX-_whzbPICCv-5" edge="1">
          <mxGeometry relative="1" as="geometry" />
        </mxCell>
        <mxCell id="PaeEdzgUaCn_I9LU4ARf-9" style="edgeStyle=orthogonalEdgeStyle;rounded=0;orthogonalLoop=1;jettySize=auto;html=1;startArrow=diamondThin;startFill=0;endArrow=oval;endFill=1;" parent="1" source="qCFcDA6FX-_whzbPICCv-22" target="qCFcDA6FX-_whzbPICCv-3" edge="1">
          <mxGeometry relative="1" as="geometry">
            <Array as="points">
              <mxPoint x="520" y="400" />
              <mxPoint x="520" y="400" />
            </Array>
          </mxGeometry>
        </mxCell>
        <mxCell id="qCFcDA6FX-_whzbPICCv-22" value="&lt;p style=&quot;margin:0px;margin-top:4px;text-align:center;&quot;&gt;&lt;b&gt;ModeratorEvidenceService&lt;/b&gt;&lt;/p&gt;&lt;hr size=&quot;1&quot;&gt;&lt;p style=&quot;margin:0px;margin-left:4px;&quot;&gt;&lt;/p&gt;&lt;span style=&quot;&quot;&gt;&amp;nbsp;&lt;/span&gt;- _evidenceRepository: IRepository&amp;lt;Evidence&amp;gt;&lt;span style=&quot;&quot;&gt;&lt;br&gt;&lt;/span&gt;&lt;hr size=&quot;1&quot;&gt;&lt;p style=&quot;margin:0px;margin-left:4px;&quot;&gt;+ Approve (reportId): boolean&lt;/p&gt;&lt;p style=&quot;margin:0px;margin-left:4px;&quot;&gt;+ Declince (reportId): boolean&lt;br&gt;&lt;/p&gt;&lt;p style=&quot;margin:0px;margin-left:4px;&quot;&gt;+ Review (reportId): boolean&lt;br&gt;&lt;/p&gt;&lt;p style=&quot;margin:0px;margin-left:4px;&quot;&gt;+ BeModerator (moderatorId): boolean&lt;/p&gt;" style="verticalAlign=top;align=left;overflow=fill;fontSize=12;fontFamily=Helvetica;html=1;" parent="1" vertex="1">
          <mxGeometry x="555" y="340" width="260" height="120" as="geometry" />
        </mxCell>
      </root>
    </mxGraphModel>
  </diagram>
  <diagram id="dnh7LXElczL-Q1MQJiPS" name="ClassDiagram Controllers">
    <mxGraphModel dx="1406" dy="818" grid="1" gridSize="10" guides="1" tooltips="1" connect="1" arrows="1" fold="1" page="1" pageScale="1" pageWidth="850" pageHeight="1100" math="0" shadow="0">
      <root>
        <mxCell id="0" />
        <mxCell id="1" parent="0" />
        <mxCell id="pGLzCjAy28O5zW0YHN9y-5" value="&lt;p style=&quot;margin:0px;margin-top:4px;text-align:center;&quot;&gt;WitnessAccountService&lt;br&gt;&lt;/p&gt;&lt;p style=&quot;margin:0px;margin-left:4px;&quot;&gt;&lt;br&gt;&lt;/p&gt;&lt;p style=&quot;margin:0px;margin-left:4px;&quot;&gt;&lt;br&gt;&lt;/p&gt;" style="verticalAlign=top;align=left;overflow=fill;fontSize=12;fontFamily=Helvetica;html=1;" parent="1" vertex="1">
          <mxGeometry x="50" y="20" width="160" height="23" as="geometry" />
        </mxCell>
        <mxCell id="pGLzCjAy28O5zW0YHN9y-7" style="edgeStyle=orthogonalEdgeStyle;rounded=0;orthogonalLoop=1;jettySize=auto;html=1;entryX=0.5;entryY=1;entryDx=0;entryDy=0;endArrow=oval;endFill=1;startArrow=diamondThin;startFill=0;" parent="1" source="pGLzCjAy28O5zW0YHN9y-6" target="pGLzCjAy28O5zW0YHN9y-5" edge="1">
          <mxGeometry relative="1" as="geometry" />
        </mxCell>
        <mxCell id="pGLzCjAy28O5zW0YHN9y-6" value="&lt;p style=&quot;margin:0px;margin-top:4px;text-align:center;&quot;&gt;&lt;b&gt;WitnessController&lt;/b&gt;&lt;/p&gt;&lt;hr size=&quot;1&quot;&gt;&lt;p style=&quot;margin:0px;margin-left:4px;&quot;&gt;- _witnessRepository: IRepository&lt;/p&gt;&lt;p style=&quot;margin:0px;margin-left:4px;&quot;&gt;- witnessAccountSerive:WitnessAccountService&lt;/p&gt;&lt;hr size=&quot;1&quot;&gt;&lt;p style=&quot;margin:0px;margin-left:4px;&quot;&gt;+ Create (): Witness&lt;/p&gt;&lt;p style=&quot;margin:0px;margin-left:4px;&quot;&gt;+ DeleteById (witnessId): boolean&lt;/p&gt;&lt;p style=&quot;margin:0px;margin-left:4px;&quot;&gt;+ GetById (witnessId): Witness&lt;/p&gt;&lt;p style=&quot;margin:0px;margin-left:4px;&quot;&gt;+ Signin (loginInfo): Witness&lt;/p&gt;" style="verticalAlign=top;align=left;overflow=fill;fontSize=12;fontFamily=Helvetica;html=1;" parent="1" vertex="1">
          <mxGeometry y="80" width="260" height="130" as="geometry" />
        </mxCell>
        <mxCell id="pGLzCjAy28O5zW0YHN9y-8" value="&lt;p style=&quot;margin:0px;margin-top:4px;text-align:center;&quot;&gt;NotificationService&lt;/p&gt;" style="verticalAlign=top;align=left;overflow=fill;fontSize=12;fontFamily=Helvetica;html=1;" parent="1" vertex="1">
          <mxGeometry x="660" y="297" width="160" height="23" as="geometry" />
        </mxCell>
        <mxCell id="pGLzCjAy28O5zW0YHN9y-18" style="edgeStyle=orthogonalEdgeStyle;rounded=0;orthogonalLoop=1;jettySize=auto;html=1;startArrow=diamondThin;startFill=0;endArrow=oval;endFill=1;" parent="1" source="pGLzCjAy28O5zW0YHN9y-10" target="pGLzCjAy28O5zW0YHN9y-8" edge="1">
          <mxGeometry relative="1" as="geometry" />
        </mxCell>
        <mxCell id="pGLzCjAy28O5zW0YHN9y-10" value="&lt;p style=&quot;margin:0px;margin-top:4px;text-align:center;&quot;&gt;&lt;b&gt;NotificationController&lt;/b&gt;&lt;/p&gt;&lt;hr size=&quot;1&quot;&gt;&lt;p style=&quot;margin:0px;margin-left:4px;&quot;&gt;- _witnessRepository: IRepository&lt;/p&gt;&lt;p style=&quot;margin:0px;margin-left:4px;&quot;&gt;- _moderatorRepository: IRepository&lt;br&gt;&lt;/p&gt;&lt;p style=&quot;margin:0px;margin-left:4px;&quot;&gt;- notificationService: NotificationService&lt;/p&gt;&lt;hr size=&quot;1&quot;&gt;&lt;p style=&quot;margin:0px;margin-left:4px;&quot;&gt;+ ForModerator (): Notification&lt;/p&gt;&lt;p style=&quot;margin:0px;margin-left:4px;&quot;&gt;+ ForWitness (witnessId): Notification&lt;/p&gt;&lt;p style=&quot;margin:0px;margin-left:4px;&quot;&gt;+ Seen (notificationId): boolean&lt;/p&gt;" style="verticalAlign=top;align=left;overflow=fill;fontSize=12;fontFamily=Helvetica;html=1;" parent="1" vertex="1">
          <mxGeometry x="630" y="80" width="220" height="140" as="geometry" />
        </mxCell>
        <mxCell id="pGLzCjAy28O5zW0YHN9y-14" style="edgeStyle=orthogonalEdgeStyle;rounded=0;orthogonalLoop=1;jettySize=auto;html=1;startArrow=diamondThin;startFill=0;endArrow=oval;endFill=1;" parent="1" source="pGLzCjAy28O5zW0YHN9y-12" target="pGLzCjAy28O5zW0YHN9y-13" edge="1">
          <mxGeometry relative="1" as="geometry" />
        </mxCell>
        <mxCell id="pGLzCjAy28O5zW0YHN9y-16" style="edgeStyle=orthogonalEdgeStyle;rounded=0;orthogonalLoop=1;jettySize=auto;html=1;startArrow=diamondThin;startFill=0;endArrow=oval;endFill=1;" parent="1" source="pGLzCjAy28O5zW0YHN9y-12" target="pGLzCjAy28O5zW0YHN9y-15" edge="1">
          <mxGeometry relative="1" as="geometry" />
        </mxCell>
        <mxCell id="pGLzCjAy28O5zW0YHN9y-12" value="&lt;p style=&quot;margin:0px;margin-top:4px;text-align:center;&quot;&gt;&lt;b&gt;EvidenceController&lt;/b&gt;&lt;/p&gt;&lt;hr size=&quot;1&quot;&gt;&lt;p style=&quot;margin:0px;margin-left:4px;&quot;&gt;- _evidenceRepository: IRepository&lt;/p&gt;&lt;p style=&quot;margin:0px;margin-left:4px;&quot;&gt;- _reportRepository: IRepository&lt;br&gt;&lt;/p&gt;&lt;p style=&quot;margin:0px;margin-left:4px;&quot;&gt;- moderatorEvidnceService: ModeratorEvidenceService&lt;/p&gt;&lt;p style=&quot;margin:0px;margin-left:4px;&quot;&gt;- reportEvidenceService: ReportEvidenceService&lt;/p&gt;&lt;hr size=&quot;1&quot;&gt;&lt;p style=&quot;margin:0px;margin-left:4px;&quot;&gt;&lt;span style=&quot;background-color: initial;&quot;&gt;+ ApproveById (evidenceId): boolean&lt;/span&gt;&lt;br&gt;&lt;/p&gt;&lt;p style=&quot;margin:0px;margin-left:4px;&quot;&gt;+ BeModerator (witnessId, moderatorId): boolean&lt;/p&gt;&lt;p style=&quot;margin:0px;margin-left:4px;&quot;&gt;+ CreateForReport (reportId, evidence): Evidence&lt;/p&gt;&lt;p style=&quot;margin:0px;margin-left:4px;&quot;&gt;+ DeclineById (evidenceId): boolean&lt;/p&gt;&lt;p style=&quot;margin:0px;margin-left:4px;&quot;&gt;+ ReReviewById (evidenceId): boolean&lt;/p&gt;&lt;p style=&quot;margin:0px;margin-left:4px;&quot;&gt;+ GetAllForReport (reportId): Evidence[]&lt;/p&gt;&lt;p style=&quot;margin:0px;margin-left:4px;&quot;&gt;+ GetEvidenceById (evidenceId): Evidence&lt;/p&gt;&lt;p style=&quot;margin:0px;margin-left:4px;&quot;&gt;+ RemoveFromReport (evidenceId): boolean&lt;/p&gt;" style="verticalAlign=top;align=left;overflow=fill;fontSize=12;fontFamily=Helvetica;html=1;" parent="1" vertex="1">
          <mxGeometry x="270" y="20" width="310" height="230" as="geometry" />
        </mxCell>
        <mxCell id="pGLzCjAy28O5zW0YHN9y-13" value="&lt;p style=&quot;margin:0px;margin-top:4px;text-align:center;&quot;&gt;ReportEvidenceService&lt;/p&gt;" style="verticalAlign=top;align=left;overflow=fill;fontSize=12;fontFamily=Helvetica;html=1;" parent="1" vertex="1">
          <mxGeometry x="345" y="297" width="160" height="23" as="geometry" />
        </mxCell>
        <mxCell id="pGLzCjAy28O5zW0YHN9y-15" value="&lt;p style=&quot;margin:0px;margin-top:4px;text-align:center;&quot;&gt;ModeratorEvidenceService&lt;/p&gt;" style="verticalAlign=top;align=left;overflow=fill;fontSize=12;fontFamily=Helvetica;html=1;" parent="1" vertex="1">
          <mxGeometry x="630" y="20" width="160" height="23" as="geometry" />
        </mxCell>
        <mxCell id="pGLzCjAy28O5zW0YHN9y-19" value="&lt;p style=&quot;margin:0px;margin-top:4px;text-align:center;&quot;&gt;ModeratorAccountService&lt;br&gt;&lt;/p&gt;&lt;p style=&quot;margin:0px;margin-left:4px;&quot;&gt;&lt;br&gt;&lt;/p&gt;&lt;p style=&quot;margin:0px;margin-left:4px;&quot;&gt;&lt;br&gt;&lt;/p&gt;" style="verticalAlign=top;align=left;overflow=fill;fontSize=12;fontFamily=Helvetica;html=1;" parent="1" vertex="1">
          <mxGeometry x="65" y="297" width="160" height="23" as="geometry" />
        </mxCell>
        <mxCell id="pGLzCjAy28O5zW0YHN9y-20" style="edgeStyle=orthogonalEdgeStyle;rounded=0;orthogonalLoop=1;jettySize=auto;html=1;entryX=0.5;entryY=1;entryDx=0;entryDy=0;endArrow=oval;endFill=1;startArrow=diamondThin;startFill=0;" parent="1" source="pGLzCjAy28O5zW0YHN9y-21" target="pGLzCjAy28O5zW0YHN9y-19" edge="1">
          <mxGeometry relative="1" as="geometry" />
        </mxCell>
        <mxCell id="pGLzCjAy28O5zW0YHN9y-21" value="&lt;p style=&quot;margin:0px;margin-top:4px;text-align:center;&quot;&gt;&lt;b&gt;ModeratorController&lt;/b&gt;&lt;/p&gt;&lt;hr size=&quot;1&quot;&gt;&lt;p style=&quot;margin:0px;margin-left:4px;&quot;&gt;- _moderatorRepository: IRepository&lt;/p&gt;&lt;p style=&quot;margin:0px;margin-left:4px;&quot;&gt;- moderatorAccountSerive:ModeratorAccountService&lt;br&gt;&lt;/p&gt;&lt;hr size=&quot;1&quot;&gt;&lt;p style=&quot;margin:0px;margin-left:4px;&quot;&gt;+ Create (): Witness&lt;/p&gt;&lt;p style=&quot;margin:0px;margin-left:4px;&quot;&gt;+ DeleteById (witnessId): boolean&lt;/p&gt;&lt;p style=&quot;margin:0px;margin-left:4px;&quot;&gt;+ GetById (witnessId): Witness&lt;/p&gt;&lt;p style=&quot;margin:0px;margin-left:4px;&quot;&gt;+ Signin (loginInfo): Witness&lt;/p&gt;" style="verticalAlign=top;align=left;overflow=fill;fontSize=12;fontFamily=Helvetica;html=1;" parent="1" vertex="1">
          <mxGeometry y="357" width="290" height="130" as="geometry" />
        </mxCell>
        <mxCell id="pGLzCjAy28O5zW0YHN9y-24" style="edgeStyle=orthogonalEdgeStyle;rounded=0;orthogonalLoop=1;jettySize=auto;html=1;startArrow=diamondThin;startFill=0;endArrow=oval;endFill=1;" parent="1" source="pGLzCjAy28O5zW0YHN9y-22" target="pGLzCjAy28O5zW0YHN9y-23" edge="1">
          <mxGeometry relative="1" as="geometry">
            <Array as="points">
              <mxPoint x="320" y="464" />
              <mxPoint x="320" y="551" />
            </Array>
          </mxGeometry>
        </mxCell>
        <mxCell id="pGLzCjAy28O5zW0YHN9y-26" style="edgeStyle=orthogonalEdgeStyle;rounded=0;orthogonalLoop=1;jettySize=auto;html=1;startArrow=diamondThin;startFill=0;endArrow=oval;endFill=1;" parent="1" source="pGLzCjAy28O5zW0YHN9y-22" target="pGLzCjAy28O5zW0YHN9y-25" edge="1">
          <mxGeometry relative="1" as="geometry" />
        </mxCell>
        <mxCell id="pGLzCjAy28O5zW0YHN9y-22" value="&lt;p style=&quot;margin:0px;margin-top:4px;text-align:center;&quot;&gt;&lt;b&gt;ReportController&lt;/b&gt;&lt;/p&gt;&lt;hr size=&quot;1&quot;&gt;&lt;p style=&quot;margin:0px;margin-left:4px;&quot;&gt;- _reportRepository: IRepository&lt;/p&gt;&lt;p style=&quot;margin:0px;margin-left:4px;&quot;&gt;- moderatorReportService: ModeratorReportService&lt;/p&gt;&lt;p style=&quot;margin:0px;margin-left:4px;&quot;&gt;- reportService: ReportService&lt;/p&gt;&lt;hr size=&quot;1&quot;&gt;&lt;p style=&quot;margin: 0px 0px 0px 4px;&quot;&gt;&lt;span style=&quot;background-color: initial;&quot;&gt;+ Create (report): Report&lt;/span&gt;&lt;/p&gt;&lt;p style=&quot;margin: 0px 0px 0px 4px;&quot;&gt;+ GetAll (): Report []&lt;/p&gt;&lt;p style=&quot;margin: 0px 0px 0px 4px;&quot;&gt;+ GetById (reportId): Report&lt;/p&gt;&lt;p style=&quot;margin: 0px 0px 0px 4px;&quot;&gt;+ Star (reportId, witness|moderator) boolean&lt;/p&gt;&lt;p style=&quot;margin: 0px 0px 0px 4px;&quot;&gt;&lt;span style=&quot;background-color: initial;&quot;&gt;+ ApproveById (reportId): boolean&lt;/span&gt;&lt;br&gt;&lt;/p&gt;&lt;p style=&quot;margin: 0px 0px 0px 4px;&quot;&gt;+ BeModerator (reportId, moderatorId): boolean&lt;/p&gt;&lt;p style=&quot;margin: 0px 0px 0px 4px;&quot;&gt;+ DeclineById (reportId): boolean&lt;/p&gt;&lt;p style=&quot;margin: 0px 0px 0px 4px;&quot;&gt;+ ReReviewById (reportId): boolean&lt;/p&gt;" style="verticalAlign=top;align=left;overflow=fill;fontSize=12;fontFamily=Helvetica;html=1;" parent="1" vertex="1">
          <mxGeometry x="345" y="357" width="285" height="213" as="geometry" />
        </mxCell>
        <mxCell id="pGLzCjAy28O5zW0YHN9y-23" value="&lt;p style=&quot;margin:0px;margin-top:4px;text-align:center;&quot;&gt;ReportService&lt;/p&gt;" style="verticalAlign=top;align=left;overflow=fill;fontSize=12;fontFamily=Helvetica;html=1;" parent="1" vertex="1">
          <mxGeometry x="65" y="539" width="160" height="23" as="geometry" />
        </mxCell>
        <mxCell id="pGLzCjAy28O5zW0YHN9y-25" value="&lt;p style=&quot;margin:0px;margin-top:4px;text-align:center;&quot;&gt;ModeratorReportService&lt;/p&gt;" style="verticalAlign=top;align=left;overflow=fill;fontSize=12;fontFamily=Helvetica;html=1;" parent="1" vertex="1">
          <mxGeometry x="660" y="452" width="160" height="23" as="geometry" />
        </mxCell>
      </root>
    </mxGraphModel>
  </diagram>
  <diagram id="hvllNhZtolhfTZzAh_cb" name="ClassDiagram Frontend services">
    <mxGraphModel dx="1406" dy="818" grid="1" gridSize="10" guides="1" tooltips="1" connect="1" arrows="1" fold="1" page="1" pageScale="1" pageWidth="850" pageHeight="1100" math="0" shadow="0">
      <root>
        <mxCell id="0" />
        <mxCell id="1" parent="0" />
        <mxCell id="Q7f7FrKrphFVyDToKMyr-1" value="&lt;p style=&quot;margin:0px;margin-top:4px;text-align:center;&quot;&gt;&lt;b&gt;AuthenticationService&lt;/b&gt;&lt;/p&gt;&lt;hr size=&quot;1&quot;&gt;&lt;p style=&quot;margin:0px;margin-left:4px;&quot;&gt;- isSignin: boolean&lt;/p&gt;&lt;p style=&quot;margin:0px;margin-left:4px;&quot;&gt;- currentUser: Witness | Moderator&lt;/p&gt;&lt;p style=&quot;margin:0px;margin-left:4px;&quot;&gt;- jwtHelper: JwtHelper&lt;/p&gt;&lt;hr size=&quot;1&quot;&gt;&lt;p style=&quot;margin:0px;margin-left:4px;&quot;&gt;+ GetCurrentUser (): Witness | Moderator&lt;/p&gt;&lt;p style=&quot;margin:0px;margin-left:4px;&quot;&gt;+ IsAuthenticated (): boolean&lt;/p&gt;&lt;p style=&quot;margin:0px;margin-left:4px;&quot;&gt;+ IsModerator (): boolean&lt;/p&gt;&lt;p style=&quot;margin:0px;margin-left:4px;&quot;&gt;+ IsUserSignin () boolean&lt;/p&gt;&lt;p style=&quot;margin:0px;margin-left:4px;&quot;&gt;+ RemoveToken (): boolean&lt;/p&gt;&lt;p style=&quot;margin:0px;margin-left:4px;&quot;&gt;+ SetToken (): string&lt;/p&gt;" style="verticalAlign=top;align=left;overflow=fill;fontSize=12;fontFamily=Helvetica;html=1;" parent="1" vertex="1">
          <mxGeometry width="230" height="180" as="geometry" />
        </mxCell>
        <mxCell id="Q7f7FrKrphFVyDToKMyr-5" style="edgeStyle=orthogonalEdgeStyle;rounded=0;orthogonalLoop=1;jettySize=auto;html=1;startArrow=oval;startFill=1;endArrow=open;endFill=0;" parent="1" source="Q7f7FrKrphFVyDToKMyr-2" target="Q7f7FrKrphFVyDToKMyr-1" edge="1">
          <mxGeometry relative="1" as="geometry" />
        </mxCell>
        <mxCell id="Q7f7FrKrphFVyDToKMyr-2" value="&lt;p style=&quot;margin:0px;margin-top:4px;text-align:center;&quot;&gt;&lt;b&gt;ModeratorService&lt;/b&gt;&lt;/p&gt;&lt;hr size=&quot;1&quot;&gt;&lt;p style=&quot;margin:0px;margin-left:4px;&quot;&gt;&lt;/p&gt;&lt;p style=&quot;margin:0px;margin-left:4px;&quot;&gt;+ Create (moderator): Moderator&lt;/p&gt;&lt;p style=&quot;margin:0px;margin-left:4px;&quot;&gt;+ Delete (id): boolean&lt;/p&gt;&lt;p style=&quot;margin:0px;margin-left:4px;&quot;&gt;+ Details (id): Moderator&lt;/p&gt;&lt;p style=&quot;margin:0px;margin-left:4px;&quot;&gt;+ Signin (signin): Moderator&lt;/p&gt;&lt;p style=&quot;margin:0px;margin-left:4px;&quot;&gt;+ SignOut (): boolean&lt;/p&gt;" style="verticalAlign=top;align=left;overflow=fill;fontSize=12;fontFamily=Helvetica;html=1;" parent="1" vertex="1">
          <mxGeometry x="22.5" y="240" width="185" height="110" as="geometry" />
        </mxCell>
        <mxCell id="Q7f7FrKrphFVyDToKMyr-4" style="edgeStyle=orthogonalEdgeStyle;rounded=0;orthogonalLoop=1;jettySize=auto;html=1;endArrow=open;endFill=0;startArrow=oval;startFill=1;" parent="1" source="Q7f7FrKrphFVyDToKMyr-3" target="Q7f7FrKrphFVyDToKMyr-1" edge="1">
          <mxGeometry relative="1" as="geometry" />
        </mxCell>
        <mxCell id="Q7f7FrKrphFVyDToKMyr-3" value="&lt;p style=&quot;margin:0px;margin-top:4px;text-align:center;&quot;&gt;&lt;b&gt;WitnessService&lt;/b&gt;&lt;/p&gt;&lt;hr size=&quot;1&quot;&gt;&lt;p style=&quot;margin:0px;margin-left:4px;&quot;&gt;&lt;/p&gt;&lt;p style=&quot;margin:0px;margin-left:4px;&quot;&gt;+ Create (witness): Witness&lt;/p&gt;&lt;p style=&quot;margin:0px;margin-left:4px;&quot;&gt;+ Delete (): boolean&lt;/p&gt;&lt;p style=&quot;margin:0px;margin-left:4px;&quot;&gt;+ Details (id): Witness&lt;/p&gt;&lt;p style=&quot;margin:0px;margin-left:4px;&quot;&gt;+ Signin (signin): Witness&lt;/p&gt;&lt;p style=&quot;margin:0px;margin-left:4px;&quot;&gt;+ SignOut (): boolean&lt;/p&gt;" style="verticalAlign=top;align=left;overflow=fill;fontSize=12;fontFamily=Helvetica;html=1;" parent="1" vertex="1">
          <mxGeometry x="345" y="25" width="160" height="110" as="geometry" />
        </mxCell>
        <mxCell id="Q7f7FrKrphFVyDToKMyr-8" style="rounded=0;orthogonalLoop=1;jettySize=auto;html=1;startArrow=oval;startFill=1;endArrow=open;endFill=0;exitX=0;exitY=0;exitDx=0;exitDy=0;entryX=1;entryY=1;entryDx=0;entryDy=0;" parent="1" source="Q7f7FrKrphFVyDToKMyr-7" target="Q7f7FrKrphFVyDToKMyr-1" edge="1">
          <mxGeometry relative="1" as="geometry" />
        </mxCell>
        <mxCell id="Q7f7FrKrphFVyDToKMyr-7" value="&lt;p style=&quot;margin:0px;margin-top:4px;text-align:center;&quot;&gt;&lt;b&gt;WebsocketService&lt;/b&gt;&lt;/p&gt;&lt;hr size=&quot;1&quot;&gt;&lt;p style=&quot;margin:0px;margin-left:4px;&quot;&gt;- socket: Socket&lt;/p&gt;&lt;p style=&quot;margin:0px;margin-left:4px;&quot;&gt;- userId: string&lt;/p&gt;&lt;hr size=&quot;1&quot;&gt;&lt;p style=&quot;margin:0px;margin-left:4px;&quot;&gt;+ Connect ()&lt;/p&gt;&lt;p style=&quot;margin:0px;margin-left:4px;&quot;&gt;+ Disconnect ()&lt;/p&gt;&lt;p style=&quot;margin:0px;margin-left:4px;&quot;&gt;+ SetUserId ()&lt;/p&gt;&lt;p style=&quot;margin:0px;margin-left:4px;&quot;&gt;+ emint (eventName, data)&lt;/p&gt;&lt;p style=&quot;margin:0px;margin-left:4px;&quot;&gt;+ On (eventName, callBack)&lt;/p&gt;" style="verticalAlign=top;align=left;overflow=fill;fontSize=12;fontFamily=Helvetica;html=1;" parent="1" vertex="1">
          <mxGeometry x="310" y="220" width="230" height="150" as="geometry" />
        </mxCell>
        <mxCell id="Q7f7FrKrphFVyDToKMyr-12" style="edgeStyle=orthogonalEdgeStyle;rounded=0;orthogonalLoop=1;jettySize=auto;html=1;startArrow=oval;startFill=1;endArrow=open;endFill=0;" parent="1" source="Q7f7FrKrphFVyDToKMyr-10" target="Q7f7FrKrphFVyDToKMyr-7" edge="1">
          <mxGeometry relative="1" as="geometry" />
        </mxCell>
        <mxCell id="Q7f7FrKrphFVyDToKMyr-10" value="&lt;p style=&quot;margin:0px;margin-top:4px;text-align:center;&quot;&gt;&lt;b&gt;NotificationService&lt;/b&gt;&lt;/p&gt;&lt;hr size=&quot;1&quot;&gt;&lt;p style=&quot;margin:0px;margin-left:4px;&quot;&gt;&lt;/p&gt;&lt;p style=&quot;margin:0px;margin-left:4px;&quot;&gt;+ CreateForModerator (id, notification): Notification&lt;/p&gt;&lt;p style=&quot;margin:0px;margin-left:4px;&quot;&gt;+ CreateForWitness (id, notification): Notification&lt;/p&gt;&lt;p style=&quot;margin:0px;margin-left:4px;&quot;&gt;+ Seen (notificationId): boolean&lt;/p&gt;&lt;p style=&quot;margin:0px;margin-left:4px;&quot;&gt;+ SendNotification (id, notification)&lt;/p&gt;" style="verticalAlign=top;align=left;overflow=fill;fontSize=12;fontFamily=Helvetica;html=1;" parent="1" vertex="1">
          <mxGeometry y="430" width="280" height="90" as="geometry" />
        </mxCell>
        <mxCell id="Q7f7FrKrphFVyDToKMyr-13" value="&lt;p style=&quot;margin:0px;margin-top:4px;text-align:center;&quot;&gt;&lt;b&gt;ReportService&lt;/b&gt;&lt;/p&gt;&lt;hr size=&quot;1&quot;&gt;&lt;p style=&quot;margin:0px;margin-left:4px;&quot;&gt;&lt;/p&gt;&lt;p style=&quot;margin:0px;margin-left:4px;&quot;&gt;+ Create (report): Report&lt;/p&gt;&lt;p style=&quot;margin:0px;margin-left:4px;&quot;&gt;+ Delete (): boolean&lt;/p&gt;&lt;p style=&quot;margin:0px;margin-left:4px;&quot;&gt;+ Details (id): report&lt;/p&gt;&lt;p style=&quot;margin:0px;margin-left:4px;&quot;&gt;+ GetAll (): Report[]&lt;/p&gt;&lt;p style=&quot;margin:0px;margin-left:4px;&quot;&gt;+ Update (id): Report&lt;/p&gt;&lt;p style=&quot;margin:0px;margin-left:4px;&quot;&gt;+ Approve (id): boolean&lt;/p&gt;&lt;p style=&quot;margin:0px;margin-left:4px;&quot;&gt;+ Decline (id): boolean&lt;/p&gt;&lt;p style=&quot;margin:0px;margin-left:4px;&quot;&gt;+ ReReview (id): boolean&lt;/p&gt;&lt;p style=&quot;margin:0px;margin-left:4px;&quot;&gt;+ BeModerator (reportId, moderatorId)&lt;/p&gt;&lt;p style=&quot;margin:0px;margin-left:4px;&quot;&gt;+ Star (reportId, witnessId): boolean&lt;/p&gt;" style="verticalAlign=top;align=left;overflow=fill;fontSize=12;fontFamily=Helvetica;html=1;" parent="1" vertex="1">
          <mxGeometry x="620" width="210" height="180" as="geometry" />
        </mxCell>
        <mxCell id="Q7f7FrKrphFVyDToKMyr-14" value="&lt;p style=&quot;margin:0px;margin-top:4px;text-align:center;&quot;&gt;&lt;b&gt;EvidenceService&lt;/b&gt;&lt;/p&gt;&lt;hr size=&quot;1&quot;&gt;&lt;p style=&quot;margin:0px;margin-left:4px;&quot;&gt;&lt;/p&gt;&lt;p style=&quot;margin:0px;margin-left:4px;&quot;&gt;+ CreateForReport (evidence): Evidence&lt;/p&gt;&lt;p style=&quot;margin:0px;margin-left:4px;&quot;&gt;+ Delete (): boolean&lt;/p&gt;&lt;p style=&quot;margin:0px;margin-left:4px;&quot;&gt;+ Details (id): Evidence&lt;/p&gt;&lt;p style=&quot;margin:0px;margin-left:4px;&quot;&gt;+ GetAllForReport (): Evidence[]&lt;/p&gt;&lt;p style=&quot;margin:0px;margin-left:4px;&quot;&gt;+ Update (id): Evidence&lt;/p&gt;&lt;p style=&quot;margin:0px;margin-left:4px;&quot;&gt;+ Approve (id): boolean&lt;/p&gt;&lt;p style=&quot;margin:0px;margin-left:4px;&quot;&gt;+ Decline (id): boolean&lt;/p&gt;&lt;p style=&quot;margin:0px;margin-left:4px;&quot;&gt;+ ReReview (id): boolean&lt;/p&gt;&lt;p style=&quot;margin:0px;margin-left:4px;&quot;&gt;+ BeModerator (reportId, moderatorId)&lt;/p&gt;&lt;p style=&quot;margin:0px;margin-left:4px;&quot;&gt;+ Star (reportId, witnessId): boolean&lt;/p&gt;" style="verticalAlign=top;align=left;overflow=fill;fontSize=12;fontFamily=Helvetica;html=1;" parent="1" vertex="1">
          <mxGeometry x="620" y="340" width="210" height="180" as="geometry" />
        </mxCell>
      </root>
    </mxGraphModel>
  </diagram>
  <diagram id="xmcmPqvmP8XbiwdpYz1U" name="ClassDiagram Routes">
    <mxGraphModel dx="1406" dy="818" grid="1" gridSize="10" guides="1" tooltips="1" connect="1" arrows="1" fold="1" page="1" pageScale="1" pageWidth="850" pageHeight="1100" math="0" shadow="0">
      <root>
        <mxCell id="0" />
        <mxCell id="1" parent="0" />
        <mxCell id="iMn4nX5tTeP7fdu-mTP9-1" value="&lt;p style=&quot;margin:0px;margin-top:4px;text-align:center;&quot;&gt;&lt;b&gt;WitnessController&lt;/b&gt;&lt;/p&gt;&lt;hr size=&quot;1&quot;&gt;&lt;p style=&quot;margin:0px;margin-left:4px;&quot;&gt;&lt;br&gt;&lt;/p&gt;" style="verticalAlign=top;align=left;overflow=fill;fontSize=12;fontFamily=Helvetica;html=1;" vertex="1" parent="1">
          <mxGeometry x="360" y="320" width="130" height="40" as="geometry" />
        </mxCell>
        <mxCell id="iMn4nX5tTeP7fdu-mTP9-2" value="&lt;p style=&quot;margin:0px;margin-top:4px;text-align:center;&quot;&gt;&lt;b&gt;NotificationController&lt;/b&gt;&lt;/p&gt;&lt;hr size=&quot;1&quot;&gt;&lt;p style=&quot;margin:0px;margin-left:4px;&quot;&gt;&lt;br&gt;&lt;/p&gt;" style="verticalAlign=top;align=left;overflow=fill;fontSize=12;fontFamily=Helvetica;html=1;" vertex="1" parent="1">
          <mxGeometry x="620" y="20" width="150" height="40" as="geometry" />
        </mxCell>
        <mxCell id="iMn4nX5tTeP7fdu-mTP9-3" value="&lt;p style=&quot;margin:0px;margin-top:4px;text-align:center;&quot;&gt;&lt;b&gt;EvidenceController&lt;/b&gt;&lt;/p&gt;&lt;hr size=&quot;1&quot;&gt;&lt;p style=&quot;margin:0px;margin-left:4px;&quot;&gt;&lt;br&gt;&lt;/p&gt;" style="verticalAlign=top;align=left;overflow=fill;fontSize=12;fontFamily=Helvetica;html=1;" vertex="1" parent="1">
          <mxGeometry x="640" y="320" width="130" height="40" as="geometry" />
        </mxCell>
        <mxCell id="iMn4nX5tTeP7fdu-mTP9-4" value="&lt;p style=&quot;margin:0px;margin-top:4px;text-align:center;&quot;&gt;&lt;b&gt;ModeratorController&lt;/b&gt;&lt;/p&gt;&lt;hr size=&quot;1&quot;&gt;&lt;p style=&quot;margin:0px;margin-left:4px;&quot;&gt;&lt;br&gt;&lt;/p&gt;" style="verticalAlign=top;align=left;overflow=fill;fontSize=12;fontFamily=Helvetica;html=1;" vertex="1" parent="1">
          <mxGeometry x="80" y="20" width="140" height="40" as="geometry" />
        </mxCell>
        <mxCell id="iMn4nX5tTeP7fdu-mTP9-5" value="&lt;p style=&quot;margin:0px;margin-top:4px;text-align:center;&quot;&gt;&lt;b&gt;ReportController&lt;/b&gt;&lt;/p&gt;&lt;hr size=&quot;1&quot;&gt;&lt;p style=&quot;margin:0px;margin-left:4px;&quot;&gt;&lt;br&gt;&lt;/p&gt;" style="verticalAlign=top;align=left;overflow=fill;fontSize=12;fontFamily=Helvetica;html=1;" vertex="1" parent="1">
          <mxGeometry x="90" y="320" width="120" height="40" as="geometry" />
        </mxCell>
        <mxCell id="UenvvqbkA6tQ6bfjnmMi-1" style="edgeStyle=orthogonalEdgeStyle;rounded=0;orthogonalLoop=1;jettySize=auto;html=1;endArrow=oval;endFill=1;startArrow=diamondThin;startFill=0;" edge="1" parent="1" source="iMn4nX5tTeP7fdu-mTP9-7" target="iMn4nX5tTeP7fdu-mTP9-5">
          <mxGeometry relative="1" as="geometry" />
        </mxCell>
        <mxCell id="iMn4nX5tTeP7fdu-mTP9-7" value="&lt;p style=&quot;margin:0px;margin-top:4px;text-align:center;&quot;&gt;&lt;b&gt;EvidenceRouter&lt;/b&gt;&lt;/p&gt;&lt;hr size=&quot;1&quot;&gt;&lt;p style=&quot;margin:0px;margin-left:4px;&quot;&gt;&lt;br&gt;&lt;/p&gt;" style="verticalAlign=top;align=left;overflow=fill;fontSize=12;fontFamily=Helvetica;html=1;" vertex="1" parent="1">
          <mxGeometry x="20" y="200" width="110" height="40" as="geometry" />
        </mxCell>
        <mxCell id="UenvvqbkA6tQ6bfjnmMi-2" style="edgeStyle=orthogonalEdgeStyle;rounded=0;orthogonalLoop=1;jettySize=auto;html=1;startArrow=diamondThin;startFill=0;endArrow=oval;endFill=1;" edge="1" parent="1" source="iMn4nX5tTeP7fdu-mTP9-8" target="iMn4nX5tTeP7fdu-mTP9-5">
          <mxGeometry relative="1" as="geometry">
            <Array as="points">
              <mxPoint x="250" y="340" />
            </Array>
          </mxGeometry>
        </mxCell>
        <mxCell id="iMn4nX5tTeP7fdu-mTP9-8" value="&lt;p style=&quot;margin:0px;margin-top:4px;text-align:center;&quot;&gt;&lt;b&gt;ReportRouter&lt;/b&gt;&lt;/p&gt;&lt;hr size=&quot;1&quot;&gt;&lt;p style=&quot;margin:0px;margin-left:4px;&quot;&gt;&lt;br&gt;&lt;/p&gt;" style="verticalAlign=top;align=left;overflow=fill;fontSize=12;fontFamily=Helvetica;html=1;" vertex="1" parent="1">
          <mxGeometry x="200" y="240" width="100" height="40" as="geometry" />
        </mxCell>
        <mxCell id="UenvvqbkA6tQ6bfjnmMi-5" style="edgeStyle=orthogonalEdgeStyle;rounded=0;orthogonalLoop=1;jettySize=auto;html=1;startArrow=diamondThin;startFill=0;endArrow=oval;endFill=1;" edge="1" parent="1" source="UenvvqbkA6tQ6bfjnmMi-3" target="iMn4nX5tTeP7fdu-mTP9-4">
          <mxGeometry relative="1" as="geometry" />
        </mxCell>
        <mxCell id="UenvvqbkA6tQ6bfjnmMi-3" value="&lt;p style=&quot;margin:0px;margin-top:4px;text-align:center;&quot;&gt;&lt;b&gt;ModeratorRouter&lt;/b&gt;&lt;/p&gt;&lt;hr size=&quot;1&quot;&gt;&lt;p style=&quot;margin:0px;margin-left:4px;&quot;&gt;&lt;br&gt;&lt;/p&gt;" style="verticalAlign=top;align=left;overflow=fill;fontSize=12;fontFamily=Helvetica;html=1;" vertex="1" parent="1">
          <mxGeometry x="90" y="120" width="120" height="40" as="geometry" />
        </mxCell>
        <mxCell id="Urq7Gc8RE6TBjnj3C6Ey-61" style="edgeStyle=orthogonalEdgeStyle;rounded=0;orthogonalLoop=1;jettySize=auto;html=1;startArrow=diamondThin;startFill=0;endArrow=oval;endFill=1;" edge="1" parent="1" source="UenvvqbkA6tQ6bfjnmMi-6" target="iMn4nX5tTeP7fdu-mTP9-1">
          <mxGeometry relative="1" as="geometry" />
        </mxCell>
        <mxCell id="UenvvqbkA6tQ6bfjnmMi-6" value="&lt;p style=&quot;margin:0px;margin-top:4px;text-align:center;&quot;&gt;&lt;b&gt;WitnessRouter&lt;/b&gt;&lt;/p&gt;&lt;hr size=&quot;1&quot;&gt;&lt;p style=&quot;margin:0px;margin-left:4px;&quot;&gt;&lt;br&gt;&lt;/p&gt;" style="verticalAlign=top;align=left;overflow=fill;fontSize=12;fontFamily=Helvetica;html=1;" vertex="1" parent="1">
          <mxGeometry x="370" y="240" width="110" height="40" as="geometry" />
        </mxCell>
        <mxCell id="UenvvqbkA6tQ6bfjnmMi-9" style="edgeStyle=orthogonalEdgeStyle;rounded=0;orthogonalLoop=1;jettySize=auto;html=1;startArrow=diamondThin;startFill=0;endArrow=oval;endFill=1;" edge="1" parent="1" source="UenvvqbkA6tQ6bfjnmMi-8" target="iMn4nX5tTeP7fdu-mTP9-2">
          <mxGeometry relative="1" as="geometry" />
        </mxCell>
        <mxCell id="UenvvqbkA6tQ6bfjnmMi-8" value="&lt;p style=&quot;margin:0px;margin-top:4px;text-align:center;&quot;&gt;&lt;b&gt;NotificationRouter&lt;/b&gt;&lt;/p&gt;&lt;hr size=&quot;1&quot;&gt;&lt;p style=&quot;margin:0px;margin-left:4px;&quot;&gt;&lt;br&gt;&lt;/p&gt;" style="verticalAlign=top;align=left;overflow=fill;fontSize=12;fontFamily=Helvetica;html=1;" vertex="1" parent="1">
          <mxGeometry x="630" y="120" width="130" height="40" as="geometry" />
        </mxCell>
        <mxCell id="Urq7Gc8RE6TBjnj3C6Ey-3" style="edgeStyle=orthogonalEdgeStyle;rounded=0;orthogonalLoop=1;jettySize=auto;html=1;startArrow=diamondThin;startFill=0;endArrow=oval;endFill=1;" edge="1" parent="1" source="Urq7Gc8RE6TBjnj3C6Ey-2" target="iMn4nX5tTeP7fdu-mTP9-3">
          <mxGeometry relative="1" as="geometry" />
        </mxCell>
        <mxCell id="Urq7Gc8RE6TBjnj3C6Ey-2" value="&lt;p style=&quot;margin:0px;margin-top:4px;text-align:center;&quot;&gt;&lt;b&gt;EvidenceRouter&lt;/b&gt;&lt;/p&gt;&lt;hr size=&quot;1&quot;&gt;&lt;p style=&quot;margin:0px;margin-left:4px;&quot;&gt;&lt;br&gt;&lt;/p&gt;" style="verticalAlign=top;align=left;overflow=fill;fontSize=12;fontFamily=Helvetica;html=1;" vertex="1" parent="1">
          <mxGeometry x="650" y="240" width="110" height="40" as="geometry" />
        </mxCell>
        <mxCell id="Urq7Gc8RE6TBjnj3C6Ey-53" style="edgeStyle=orthogonalEdgeStyle;rounded=0;orthogonalLoop=1;jettySize=auto;html=1;startArrow=diamondThin;startFill=0;endArrow=oval;endFill=1;" edge="1" parent="1" source="Urq7Gc8RE6TBjnj3C6Ey-4" target="UenvvqbkA6tQ6bfjnmMi-3">
          <mxGeometry relative="1" as="geometry" />
        </mxCell>
        <mxCell id="Urq7Gc8RE6TBjnj3C6Ey-55" style="edgeStyle=orthogonalEdgeStyle;rounded=0;orthogonalLoop=1;jettySize=auto;html=1;startArrow=diamondThin;startFill=0;endArrow=oval;endFill=1;" edge="1" parent="1" source="Urq7Gc8RE6TBjnj3C6Ey-4" target="UenvvqbkA6tQ6bfjnmMi-8">
          <mxGeometry relative="1" as="geometry" />
        </mxCell>
        <mxCell id="Urq7Gc8RE6TBjnj3C6Ey-56" style="edgeStyle=orthogonalEdgeStyle;rounded=0;orthogonalLoop=1;jettySize=auto;html=1;startArrow=diamondThin;startFill=0;endArrow=oval;endFill=1;" edge="1" parent="1" source="Urq7Gc8RE6TBjnj3C6Ey-4" target="Urq7Gc8RE6TBjnj3C6Ey-2">
          <mxGeometry relative="1" as="geometry">
            <Array as="points">
              <mxPoint x="460" y="200" />
              <mxPoint x="705" y="200" />
            </Array>
          </mxGeometry>
        </mxCell>
        <mxCell id="Urq7Gc8RE6TBjnj3C6Ey-57" style="edgeStyle=orthogonalEdgeStyle;rounded=0;orthogonalLoop=1;jettySize=auto;html=1;startArrow=diamondThin;startFill=0;endArrow=oval;endFill=1;" edge="1" parent="1" source="Urq7Gc8RE6TBjnj3C6Ey-4" target="iMn4nX5tTeP7fdu-mTP9-8">
          <mxGeometry relative="1" as="geometry">
            <Array as="points">
              <mxPoint x="400" y="200" />
              <mxPoint x="250" y="200" />
            </Array>
          </mxGeometry>
        </mxCell>
        <mxCell id="Urq7Gc8RE6TBjnj3C6Ey-58" style="edgeStyle=orthogonalEdgeStyle;rounded=0;orthogonalLoop=1;jettySize=auto;html=1;startArrow=diamondThin;startFill=0;endArrow=oval;endFill=1;" edge="1" parent="1" source="Urq7Gc8RE6TBjnj3C6Ey-4" target="iMn4nX5tTeP7fdu-mTP9-7">
          <mxGeometry relative="1" as="geometry">
            <Array as="points">
              <mxPoint x="380" y="180" />
              <mxPoint x="75" y="180" />
            </Array>
          </mxGeometry>
        </mxCell>
        <mxCell id="Urq7Gc8RE6TBjnj3C6Ey-60" style="edgeStyle=orthogonalEdgeStyle;rounded=0;orthogonalLoop=1;jettySize=auto;html=1;startArrow=diamondThin;startFill=0;endArrow=oval;endFill=1;" edge="1" parent="1" source="Urq7Gc8RE6TBjnj3C6Ey-4" target="UenvvqbkA6tQ6bfjnmMi-6">
          <mxGeometry relative="1" as="geometry" />
        </mxCell>
        <mxCell id="Urq7Gc8RE6TBjnj3C6Ey-62" style="edgeStyle=orthogonalEdgeStyle;rounded=0;orthogonalLoop=1;jettySize=auto;html=1;startArrow=diamondThin;startFill=0;endArrow=oval;endFill=1;" edge="1" parent="1" source="Urq7Gc8RE6TBjnj3C6Ey-4" target="Urq7Gc8RE6TBjnj3C6Ey-59">
          <mxGeometry relative="1" as="geometry" />
        </mxCell>
        <mxCell id="Urq7Gc8RE6TBjnj3C6Ey-4" value="&lt;p style=&quot;margin:0px;margin-top:4px;text-align:center;&quot;&gt;&lt;b&gt;ExpressServer&lt;/b&gt;&lt;/p&gt;&lt;hr size=&quot;1&quot;&gt;&lt;p style=&quot;margin:0px;margin-left:4px;&quot;&gt;&lt;br&gt;&lt;/p&gt;" style="verticalAlign=top;align=left;overflow=fill;fontSize=12;fontFamily=Helvetica;html=1;" vertex="1" parent="1">
          <mxGeometry x="370" y="120" width="110" height="40" as="geometry" />
        </mxCell>
        <mxCell id="Urq7Gc8RE6TBjnj3C6Ey-59" value="&lt;p style=&quot;margin:0px;margin-top:4px;text-align:center;&quot;&gt;&lt;b&gt;Socket&lt;/b&gt;&lt;/p&gt;&lt;hr size=&quot;1&quot;&gt;&lt;p style=&quot;margin:0px;margin-left:4px;&quot;&gt;&lt;br&gt;&lt;/p&gt;" style="verticalAlign=top;align=left;overflow=fill;fontSize=12;fontFamily=Helvetica;html=1;" vertex="1" parent="1">
          <mxGeometry x="370" y="20" width="110" height="40" as="geometry" />
        </mxCell>
      </root>
    </mxGraphModel>
  </diagram>
</mxfile>
